<svg xmlns="http://www.w3.org/2000/svg" width="1376" height="768" viewBox="0 0 1376 768"><defs><linearGradient id="bg" x1="0" x2="1" y1="0" y2="1"><stop offset="0%" stop-color="hsl(260, 45%, 10%)"/><stop offset="100%" stop-color="hsl(270, 50%, 16%)"/></linearGradient><radialGradient id="glow" cx=".37" cy=".38" r=".8"><stop offset="0%" stop-color="hsl(265, 70%, 60%)" stop-opacity=".45"/><stop offset="100%" stop-color="hsl(265, 70%, 60%)" stop-opacity="0"/></radialGradient><filter id="blur" width="200%" height="200%" x="-50%" y="-50%"><feGaussianBlur stdDeviation="30"/></filter></defs><rect width="100%" height="100%" fill="url(#bg)"/><rect width="100%" height="100%" fill="url(#glow)"/><g filter="url(#blur)"><circle cx="122" cy="188" r="203" fill="hsl(260, 60%, 45%)" opacity=".2"/><circle cx="107" cy="215" r="314" fill="hsl(265, 60%, 45%)" opacity=".29"/><circle cx="1015" cy="464" r="242" fill="hsl(270, 60%, 45%)" opacity=".12"/><circle cx="1012" cy="698" r="160" fill="hsl(40, 60%, 45%)" opacity=".22"/></g><g><polygon fill="hsl(37, 75%, 55%)" points="692 95 564 213 448 180 378 4 513 -199 723 -109" opacity=".2"/><polygon fill="hsl(261, 60%, 55%)" points="1119 361 1005 431 919 342 905 236 1060 196" opacity=".09"/><polygon fill="hsl(36, 75%, 55%)" points="607 762 496 877 360 847 316 782 256 633 363 498 478 460 570 626" opacity=".11"/><polygon fill="hsl(48, 75%, 55%)" points="334 383 153 518 3 419 50 201 247 127" opacity=".24"/><polygon fill="hsl(50, 75%, 55%)" points="824 342 655 391 554 290 590 123 742 106" opacity=".14"/><polygon fill="hsl(270, 60%, 55%)" points="102 765 64 821 -64 774 -55 702 6 640 115 659" opacity=".11"/><polygon fill="hsl(259, 60%, 55%)" points="471 206 369 349 206 285 177 197 205 51 326 -61 468 67" opacity=".15"/></g><g><line x1="1279" x2="328" y1="582" y2="220" stroke="hsl(45, 80%, 60%)" stroke-width="2" opacity=".17"/><line x1="906" x2="136" y1="339" y2="713" stroke="hsl(45, 80%, 60%)" stroke-width="2" opacity=".15"/><line x1="548" x2="388" y1="556" y2="304" stroke="hsl(45, 80%, 60%)" stroke-width="2" opacity=".22"/><line x1="473" x2="1115" y1="165" y2="276" stroke="hsl(45, 80%, 60%)" stroke-width="2" opacity=".16"/></g><rect width="220" height="45" x="809" y="112" fill="hsl(265, 70%, 60%)" opacity=".15" rx="20"/></svg>