<svg xmlns="http://www.w3.org/2000/svg" width="1376" height="768" viewBox="0 0 1376 768"><defs><linearGradient id="bg" x1="0" x2="1" y1="0" y2="1"><stop offset="0%" stop-color="hsl(260, 45%, 10%)"/><stop offset="100%" stop-color="hsl(270, 50%, 16%)"/></linearGradient><radialGradient id="glow" cx=".12" cy=".24" r=".8"><stop offset="0%" stop-color="hsl(265, 70%, 60%)" stop-opacity=".45"/><stop offset="100%" stop-color="hsl(265, 70%, 60%)" stop-opacity="0"/></radialGradient><filter id="blur" width="200%" height="200%" x="-50%" y="-50%"><feGaussianBlur stdDeviation="30"/></filter></defs><rect width="100%" height="100%" fill="url(#bg)"/><rect width="100%" height="100%" fill="url(#glow)"/><g filter="url(#blur)"><circle cx="967" cy="747" r="331" fill="hsl(260, 60%, 45%)" opacity=".3"/><circle cx="765" cy="657" r="324" fill="hsl(265, 60%, 45%)" opacity=".24"/><circle cx="491" cy="391" r="220" fill="hsl(270, 60%, 45%)" opacity=".21"/><circle cx="214" cy="676" r="325" fill="hsl(40, 60%, 45%)" opacity=".26"/></g><g><polygon fill="hsl(266, 60%, 55%)" points="289 468 212 529 154 485 181 360 270 393" opacity=".17"/><polygon fill="hsl(258, 60%, 55%)" points="1084 305 1027 360 979 303 984 237 1057 262" opacity=".24"/><polygon fill="hsl(261, 60%, 55%)" points="1470 547 1370 649 1272 635 1215 583 1174 471 1252 380 1325 381 1429 460" opacity=".08"/><polygon fill="hsl(266, 60%, 55%)" points="1427 617 1252 757 1127 732 1068 651 1031 495 1247 465 1341 473" opacity=".21"/><polygon fill="hsl(266, 60%, 55%)" points="883 555 776 614 724 568 745 468 817 465" opacity=".21"/></g><g><line x1="818" x2="1360" y1="161" y2="601" stroke="hsl(45, 80%, 60%)" stroke-width="2" opacity=".2"/><line x1="284" x2="1104" y1="174" y2="324" stroke="hsl(45, 80%, 60%)" stroke-width="2" opacity=".16"/><line x1="1002" x2="539" y1="135" y2="415" stroke="hsl(45, 80%, 60%)" stroke-width="2" opacity=".23"/></g><rect width="288" height="69" x="998" y="114" fill="hsl(265, 70%, 60%)" opacity=".15" rx="20"/></svg>