<svg xmlns="http://www.w3.org/2000/svg" width="1376" height="768" viewBox="0 0 1376 768"><defs><linearGradient id="bg" x1="0" x2="1" y1="0" y2="1"><stop offset="0%" stop-color="hsl(260, 45%, 10%)"/><stop offset="100%" stop-color="hsl(270, 50%, 16%)"/></linearGradient><radialGradient id="glow" cx=".38" cy=".46" r=".8"><stop offset="0%" stop-color="hsl(265, 70%, 60%)" stop-opacity=".45"/><stop offset="100%" stop-color="hsl(265, 70%, 60%)" stop-opacity="0"/></radialGradient><filter id="blur" width="200%" height="200%" x="-50%" y="-50%"><feGaussianBlur stdDeviation="30"/></filter></defs><rect width="100%" height="100%" fill="url(#bg)"/><rect width="100%" height="100%" fill="url(#glow)"/><g filter="url(#blur)"><circle cx="1201" cy="369" r="339" fill="hsl(260, 60%, 45%)" opacity=".26"/><circle cx="1116" cy="108" r="166" fill="hsl(265, 60%, 45%)" opacity=".16"/><circle cx="403" cy="170" r="284" fill="hsl(270, 60%, 45%)" opacity=".19"/><circle cx="590" cy="34" r="258" fill="hsl(40, 60%, 45%)" opacity=".21"/></g><g><polygon fill="hsl(265, 60%, 55%)" points="976 539 904 616 817 637 757 557 748 436 829 428 947 416" opacity=".1"/><polygon fill="hsl(264, 60%, 55%)" points="829 604 796 658 723 652 676 612 713 547 751 529 824 560" opacity=".12"/><polygon fill="hsl(255, 60%, 55%)" points="1415 514 1410 607 1288 583 1181 535 1183 464 1214 342 1337 327 1413 418" opacity=".2"/><polygon fill="hsl(262, 60%, 55%)" points="581 502 399 603 253 557 294 357 468 332" opacity=".18"/><polygon fill="hsl(256, 60%, 55%)" points="913 671 814 771 639 771 606 596 700 449 862 474" opacity=".16"/></g><g><line x1="1159" x2="732" y1="408" y2="397" stroke="hsl(45, 80%, 60%)" stroke-width="2" opacity=".24"/><line x1="254" x2="494" y1="64" y2="342" stroke="hsl(45, 80%, 60%)" stroke-width="2" opacity=".36"/><line x1="644" x2="457" y1="76" y2="524" stroke="hsl(45, 80%, 60%)" stroke-width="2" opacity=".38"/></g><rect width="225" height="68" x="940" y="292" fill="hsl(265, 70%, 60%)" opacity=".15" rx="20"/></svg>