<svg width="1376" height="768" viewBox="0 0 1376 768" xmlns="http://www.w3.org/2000/svg">
  <defs>
    <linearGradient id="bg" x1="0" y1="0" x2="1" y2="1">
      <stop offset="0%" stop-color="hsl(260, 45%, 10%)" />
      <stop offset="100%" stop-color="hsl(270, 50%, 16%)" />
    </linearGradient>
    <radialGradient id="glow" cx="0.12" cy="0.24" r="0.8">
      <stop offset="0%" stop-color="hsl(265, 70%, 60%)" stop-opacity="0.45" />
      <stop offset="100%" stop-color="hsl(265, 70%, 60%)" stop-opacity="0" />
    </radialGradient>
    <filter id="blur" x="-50%" y="-50%" width="200%" height="200%">
      <feGaussianBlur stdDeviation="30" />
    </filter>
  </defs>
  <rect width="100%" height="100%" fill="url(#bg)" />
  <rect width="100%" height="100%" fill="url(#glow)" />
  <g filter="url(#blur)">
<circle cx="967" cy="747" r="331" fill="hsl(260, 60%, 45%)" opacity="0.30" />
<circle cx="765" cy="657" r="324" fill="hsl(265, 60%, 45%)" opacity="0.24" />
<circle cx="491" cy="391" r="220" fill="hsl(270, 60%, 45%)" opacity="0.21" />
<circle cx="214" cy="676" r="325" fill="hsl(40, 60%, 45%)" opacity="0.26" />
  </g>
  <g>
<polygon points="289,468 212,529 154,485 181,360 270,393" fill="hsl(266, 60%, 55%)" opacity="0.17" />
<polygon points="1084,305 1027,360 979,303 984,237 1057,262" fill="hsl(258, 60%, 55%)" opacity="0.24" />
<polygon points="1470,547 1370,649 1272,635 1215,583 1174,471 1252,380 1325,381 1429,460" fill="hsl(261, 60%, 55%)" opacity="0.08" />
<polygon points="1427,617 1252,757 1127,732 1068,651 1031,495 1247,465 1341,473" fill="hsl(266, 60%, 55%)" opacity="0.21" />
<polygon points="883,555 776,614 724,568 745,468 817,465" fill="hsl(266, 60%, 55%)" opacity="0.21" />
  </g>
  <g>
<line x1="818" y1="161" x2="1360" y2="601" stroke="hsl(45, 80%, 60%)" stroke-width="2" opacity="0.20" />
<line x1="284" y1="174" x2="1104" y2="324" stroke="hsl(45, 80%, 60%)" stroke-width="2" opacity="0.16" />
<line x1="1002" y1="135" x2="539" y2="415" stroke="hsl(45, 80%, 60%)" stroke-width="2" opacity="0.23" />
  </g>
  <rect x="998" y="114" width="288" height="69" rx="20" fill="hsl(265, 70%, 60%)" opacity="0.15" />
</svg>