<svg width="1376" height="768" viewBox="0 0 1376 768" xmlns="http://www.w3.org/2000/svg">
  <defs>
    <linearGradient id="bg" x1="0" y1="0" x2="1" y2="1">
      <stop offset="0%" stop-color="hsl(210, 25%, 8%)" />
      <stop offset="100%" stop-color="hsl(215, 30%, 14%)" />
    </linearGradient>
    <radialGradient id="glow" cx="0.20" cy="0.18" r="0.8">
      <stop offset="0%" stop-color="hsl(210, 40%, 50%)" stop-opacity="0.3" />
      <stop offset="100%" stop-color="hsl(210, 40%, 50%)" stop-opacity="0" />
    </radialGradient>
    <filter id="blur" x="-50%" y="-50%" width="200%" height="200%">
      <feGaussianBlur stdDeviation="30" />
    </filter>
  </defs>
  <rect width="100%" height="100%" fill="url(#bg)" />
  <rect width="100%" height="100%" fill="url(#glow)" />
  <g filter="url(#blur)">
<circle cx="107" cy="363" r="346" fill="hsl(210, 60%, 45%)" opacity="0.30" />
<circle cx="238" cy="452" r="338" fill="hsl(215, 60%, 45%)" opacity="0.22" />
<circle cx="856" cy="221" r="174" fill="hsl(220, 60%, 45%)" opacity="0.18" />
<circle cx="247" cy="377" r="312" fill="hsl(200, 60%, 45%)" opacity="0.16" />
  </g>
  <g>
<rect x="111" y="111" width="53" height="4" fill="hsl(206, 30%, 50%)" opacity="0.20" />
<rect x="623" y="735" width="124" height="121" rx="2" fill="hsl(216, 30%, 45%)" opacity="0.17" />
<rect x="710" y="74" width="173" height="88" rx="2" fill="hsl(214, 30%, 45%)" opacity="0.06" />
<rect x="159" y="211" width="66" height="5" fill="hsl(213, 30%, 50%)" opacity="0.18" />
<rect x="1070" y="499" width="200" height="154" rx="2" fill="hsl(203, 30%, 45%)" opacity="0.09" />
<rect x="960" y="485" width="90" height="85" rx="2" fill="hsl(213, 30%, 45%)" opacity="0.09" />
<rect x="281" y="142" width="80" height="42" rx="2" fill="hsl(207, 30%, 45%)" opacity="0.14" />
  </g>
  <g>
<line x1="221" y1="348" x2="891" y2="6" stroke="hsl(210, 35%, 45%)" stroke-width="1" opacity="0.25" />
<line x1="274" y1="141" x2="81" y2="30" stroke="hsl(210, 35%, 45%)" stroke-width="1" opacity="0.36" />
<line x1="847" y1="167" x2="558" y2="610" stroke="hsl(210, 35%, 45%)" stroke-width="1" opacity="0.36" />
<line x1="913" y1="635" x2="359" y2="355" stroke="hsl(210, 35%, 45%)" stroke-width="1" opacity="0.22" />
  </g>
  <rect x="962" y="224" width="338" height="52" rx="20" fill="hsl(210, 40%, 50%)" opacity="0.15" />
</svg>