<svg width="1376" height="768" viewBox="0 0 1376 768" xmlns="http://www.w3.org/2000/svg">
  <defs>
    <linearGradient id="bg" x1="0" y1="0" x2="1" y2="1">
      <stop offset="0%" stop-color="hsl(210, 25%, 8%)" />
      <stop offset="100%" stop-color="hsl(215, 30%, 14%)" />
    </linearGradient>
    <radialGradient id="glow" cx="0.24" cy="0.16" r="0.8">
      <stop offset="0%" stop-color="hsl(210, 40%, 50%)" stop-opacity="0.3" />
      <stop offset="100%" stop-color="hsl(210, 40%, 50%)" stop-opacity="0" />
    </radialGradient>
    <filter id="blur" x="-50%" y="-50%" width="200%" height="200%">
      <feGaussianBlur stdDeviation="30" />
    </filter>
  </defs>
  <rect width="100%" height="100%" fill="url(#bg)" />
  <rect width="100%" height="100%" fill="url(#glow)" />
  <g filter="url(#blur)">
<circle cx="99" cy="757" r="227" fill="hsl(210, 60%, 45%)" opacity="0.28" />
<circle cx="244" cy="462" r="261" fill="hsl(215, 60%, 45%)" opacity="0.28" />
<circle cx="873" cy="518" r="153" fill="hsl(220, 60%, 45%)" opacity="0.23" />
<circle cx="514" cy="165" r="301" fill="hsl(200, 60%, 45%)" opacity="0.16" />
  </g>
  <g>
<rect x="639" y="364" width="63" height="60" rx="2" fill="hsl(220, 30%, 45%)" opacity="0.16" />
<rect x="331" y="667" width="133" height="11" fill="hsl(210, 30%, 50%)" opacity="0.14" />
<rect x="1043" y="373" width="65" height="5" fill="hsl(206, 30%, 50%)" opacity="0.19" />
<rect x="807" y="655" width="118" height="9" fill="hsl(214, 30%, 50%)" opacity="0.17" />
<rect x="949" y="329" width="190" height="15" fill="hsl(207, 30%, 50%)" opacity="0.13" />
<rect x="374" y="453" width="86" height="7" fill="hsl(225, 30%, 50%)" opacity="0.15" />
<rect x="553" y="394" width="206" height="16" fill="hsl(214, 30%, 50%)" opacity="0.19" />
  </g>
  <g>
<line x1="577" y1="54" x2="623" y2="333" stroke="hsl(210, 35%, 45%)" stroke-width="1" opacity="0.25" />
<line x1="728" y1="450" x2="47" y2="639" stroke="hsl(210, 35%, 45%)" stroke-width="1" opacity="0.38" />
<line x1="1249" y1="9" x2="955" y2="123" stroke="hsl(210, 35%, 45%)" stroke-width="1" opacity="0.31" />
<line x1="759" y1="279" x2="331" y2="655" stroke="hsl(210, 35%, 45%)" stroke-width="1" opacity="0.33" />
  </g>
  <rect x="868" y="125" width="268" height="55" rx="20" fill="hsl(210, 40%, 50%)" opacity="0.15" />
</svg>