<svg xmlns="http://www.w3.org/2000/svg" width="1376" height="768" viewBox="0 0 1376 768"><defs><linearGradient id="bg" x1="0" x2="1" y1="0" y2="1"><stop offset="0%" stop-color="hsl(210, 25%, 8%)"/><stop offset="100%" stop-color="hsl(215, 30%, 14%)"/></linearGradient><radialGradient id="glow" cx=".17" cy=".41" r=".8"><stop offset="0%" stop-color="hsl(210, 40%, 50%)" stop-opacity=".3"/><stop offset="100%" stop-color="hsl(210, 40%, 50%)" stop-opacity="0"/></radialGradient><filter id="blur" width="200%" height="200%" x="-50%" y="-50%"><feGaussianBlur stdDeviation="30"/></filter></defs><rect width="100%" height="100%" fill="url(#bg)"/><rect width="100%" height="100%" fill="url(#glow)"/><g filter="url(#blur)"><circle cx="847" cy="336" r="344" fill="hsl(210, 60%, 45%)" opacity=".13"/><circle cx="427" cy="72" r="304" fill="hsl(215, 60%, 45%)" opacity=".3"/><circle cx="320" cy="659" r="278" fill="hsl(220, 60%, 45%)" opacity=".15"/><circle cx="1115" cy="126" r="176" fill="hsl(200, 60%, 45%)" opacity=".23"/></g><g><rect width="141" height="11" x="181" y="642" fill="hsl(205, 30%, 50%)" opacity=".23"/><rect width="150" height="85" x="666" y="48" fill="hsl(216, 30%, 45%)" opacity=".1" rx="2"/><rect width="182" height="15" x="961" y="265" fill="hsl(225, 30%, 50%)" opacity=".24"/><rect width="209" height="17" x="1266" y="504" fill="hsl(208, 30%, 50%)" opacity=".25"/><rect width="181" height="80" x="539" y="351" fill="hsl(223, 30%, 45%)" opacity=".11" rx="2"/><rect width="192" height="160" x="542" y="58" fill="hsl(206, 30%, 45%)" opacity=".18" rx="2"/></g><g><line x1="1044" x2="153" y1="656" y2="325" stroke="hsl(210, 35%, 45%)" stroke-width="1" opacity=".38"/><line x1="1162" x2="1170" y1="502" y2="684" stroke="hsl(210, 35%, 45%)" stroke-width="1" opacity=".32"/><line x1="763" x2="834" y1="166" y2="228" stroke="hsl(210, 35%, 45%)" stroke-width="1" opacity=".28"/></g><rect width="302" height="97" x="1011" y="286" fill="hsl(210, 40%, 50%)" opacity=".15" rx="20"/></svg>