<svg xmlns="http://www.w3.org/2000/svg" width="1376" height="768" viewBox="0 0 1376 768"><defs><linearGradient id="bg" x1="0" x2="1" y1="0" y2="1"><stop offset="0%" stop-color="hsl(210, 25%, 8%)"/><stop offset="100%" stop-color="hsl(215, 30%, 14%)"/></linearGradient><radialGradient id="glow" cx=".24" cy=".16" r=".8"><stop offset="0%" stop-color="hsl(210, 40%, 50%)" stop-opacity=".3"/><stop offset="100%" stop-color="hsl(210, 40%, 50%)" stop-opacity="0"/></radialGradient><filter id="blur" width="200%" height="200%" x="-50%" y="-50%"><feGaussianBlur stdDeviation="30"/></filter></defs><rect width="100%" height="100%" fill="url(#bg)"/><rect width="100%" height="100%" fill="url(#glow)"/><g filter="url(#blur)"><circle cx="99" cy="757" r="227" fill="hsl(210, 60%, 45%)" opacity=".28"/><circle cx="244" cy="462" r="261" fill="hsl(215, 60%, 45%)" opacity=".28"/><circle cx="873" cy="518" r="153" fill="hsl(220, 60%, 45%)" opacity=".23"/><circle cx="514" cy="165" r="301" fill="hsl(200, 60%, 45%)" opacity=".16"/></g><g><rect width="63" height="60" x="639" y="364" fill="hsl(220, 30%, 45%)" opacity=".16" rx="2"/><rect width="133" height="11" x="331" y="667" fill="hsl(210, 30%, 50%)" opacity=".14"/><rect width="65" height="5" x="1043" y="373" fill="hsl(206, 30%, 50%)" opacity=".19"/><rect width="118" height="9" x="807" y="655" fill="hsl(214, 30%, 50%)" opacity=".17"/><rect width="190" height="15" x="949" y="329" fill="hsl(207, 30%, 50%)" opacity=".13"/><rect width="86" height="7" x="374" y="453" fill="hsl(225, 30%, 50%)" opacity=".15"/><rect width="206" height="16" x="553" y="394" fill="hsl(214, 30%, 50%)" opacity=".19"/></g><g><line x1="577" x2="623" y1="54" y2="333" stroke="hsl(210, 35%, 45%)" stroke-width="1" opacity=".25"/><line x1="728" x2="47" y1="450" y2="639" stroke="hsl(210, 35%, 45%)" stroke-width="1" opacity=".38"/><line x1="1249" x2="955" y1="9" y2="123" stroke="hsl(210, 35%, 45%)" stroke-width="1" opacity=".31"/><line x1="759" x2="331" y1="279" y2="655" stroke="hsl(210, 35%, 45%)" stroke-width="1" opacity=".33"/></g><rect width="268" height="55" x="868" y="125" fill="hsl(210, 40%, 50%)" opacity=".15" rx="20"/></svg>