<svg width="1376" height="768" viewBox="0 0 1376 768" xmlns="http://www.w3.org/2000/svg">
  <defs>
    <linearGradient id="bg" x1="0" y1="0" x2="1" y2="1">
      <stop offset="0%" stop-color="hsl(210, 25%, 8%)" />
      <stop offset="100%" stop-color="hsl(215, 30%, 14%)" />
    </linearGradient>
    <radialGradient id="glow" cx="0.43" cy="0.43" r="0.8">
      <stop offset="0%" stop-color="hsl(210, 40%, 50%)" stop-opacity="0.3" />
      <stop offset="100%" stop-color="hsl(210, 40%, 50%)" stop-opacity="0" />
    </radialGradient>
    <filter id="blur" x="-50%" y="-50%" width="200%" height="200%">
      <feGaussianBlur stdDeviation="30" />
    </filter>
  </defs>
  <rect width="100%" height="100%" fill="url(#bg)" />
  <rect width="100%" height="100%" fill="url(#glow)" />
  <g filter="url(#blur)">
<circle cx="238" cy="272" r="335" fill="hsl(210, 60%, 45%)" opacity="0.17" />
<circle cx="1336" cy="62" r="216" fill="hsl(215, 60%, 45%)" opacity="0.23" />
<circle cx="1282" cy="196" r="262" fill="hsl(220, 60%, 45%)" opacity="0.12" />
<circle cx="1329" cy="507" r="292" fill="hsl(200, 60%, 45%)" opacity="0.11" />
  </g>
  <g>
<rect x="1361" y="737" width="44" height="4" fill="hsl(201, 30%, 50%)" opacity="0.13" />
<rect x="404" y="0" width="111" height="46" rx="2" fill="hsl(206, 30%, 45%)" opacity="0.08" />
<rect x="1084" y="80" width="106" height="91" rx="2" fill="hsl(211, 30%, 45%)" opacity="0.15" />
<rect x="332" y="292" width="125" height="10" fill="hsl(213, 30%, 50%)" opacity="0.22" />
<rect x="1111" y="353" width="88" height="72" rx="2" fill="hsl(220, 30%, 45%)" opacity="0.08" />
  </g>
  <g>
<line x1="733" y1="413" x2="576" y2="576" stroke="hsl(210, 35%, 45%)" stroke-width="1" opacity="0.27" />
<line x1="597" y1="569" x2="1312" y2="659" stroke="hsl(210, 35%, 45%)" stroke-width="1" opacity="0.30" />
<line x1="284" y1="109" x2="424" y2="283" stroke="hsl(210, 35%, 45%)" stroke-width="1" opacity="0.38" />
<line x1="53" y1="71" x2="883" y2="722" stroke="hsl(210, 35%, 45%)" stroke-width="1" opacity="0.33" />
  </g>
  <rect x="850" y="259" width="277" height="50" rx="20" fill="hsl(210, 40%, 50%)" opacity="0.15" />
</svg>