<svg width="1376" height="768" viewBox="0 0 1376 768" xmlns="http://www.w3.org/2000/svg">
  <defs>
    <linearGradient id="bg" x1="0" y1="0" x2="1" y2="1">
      <stop offset="0%" stop-color="hsl(210, 25%, 8%)" />
      <stop offset="100%" stop-color="hsl(215, 30%, 14%)" />
    </linearGradient>
    <radialGradient id="glow" cx="0.38" cy="0.28" r="0.8">
      <stop offset="0%" stop-color="hsl(210, 40%, 50%)" stop-opacity="0.3" />
      <stop offset="100%" stop-color="hsl(210, 40%, 50%)" stop-opacity="0" />
    </radialGradient>
    <filter id="blur" x="-50%" y="-50%" width="200%" height="200%">
      <feGaussianBlur stdDeviation="30" />
    </filter>
  </defs>
  <rect width="100%" height="100%" fill="url(#bg)" />
  <rect width="100%" height="100%" fill="url(#glow)" />
  <g filter="url(#blur)">
<circle cx="264" cy="14" r="166" fill="hsl(210, 60%, 45%)" opacity="0.28" />
<circle cx="975" cy="11" r="271" fill="hsl(215, 60%, 45%)" opacity="0.15" />
<circle cx="943" cy="442" r="337" fill="hsl(220, 60%, 45%)" opacity="0.23" />
<circle cx="1349" cy="578" r="293" fill="hsl(200, 60%, 45%)" opacity="0.16" />
  </g>
  <g>
<rect x="129" y="637" width="78" height="6" fill="hsl(208, 30%, 50%)" opacity="0.17" />
<rect x="1350" y="448" width="94" height="8" fill="hsl(211, 30%, 50%)" opacity="0.18" />
<rect x="292" y="132" width="116" height="9" fill="hsl(209, 30%, 50%)" opacity="0.16" />
<rect x="228" y="96" width="154" height="12" fill="hsl(203, 30%, 50%)" opacity="0.15" />
<rect x="649" y="481" width="206" height="73" rx="2" fill="hsl(202, 30%, 45%)" opacity="0.10" />
<rect x="203" y="265" width="116" height="85" rx="2" fill="hsl(207, 30%, 45%)" opacity="0.20" />
<rect x="1349" y="42" width="98" height="90" rx="2" fill="hsl(222, 30%, 45%)" opacity="0.08" />
  </g>
  <g>
<line x1="771" y1="650" x2="459" y2="399" stroke="hsl(210, 35%, 45%)" stroke-width="1" opacity="0.39" />
<line x1="571" y1="212" x2="163" y2="81" stroke="hsl(210, 35%, 45%)" stroke-width="1" opacity="0.32" />
<line x1="667" y1="546" x2="1306" y2="418" stroke="hsl(210, 35%, 45%)" stroke-width="1" opacity="0.23" />
<line x1="1106" y1="555" x2="1277" y2="373" stroke="hsl(210, 35%, 45%)" stroke-width="1" opacity="0.24" />
  </g>
  <rect x="801" y="234" width="228" height="97" rx="20" fill="hsl(210, 40%, 50%)" opacity="0.15" />
</svg>