<svg xmlns="http://www.w3.org/2000/svg" width="1376" height="768" viewBox="0 0 1376 768"><defs><linearGradient id="bg" x1="0" x2="1" y1="0" y2="1"><stop offset="0%" stop-color="hsl(210, 25%, 8%)"/><stop offset="100%" stop-color="hsl(215, 30%, 14%)"/></linearGradient><radialGradient id="glow" cx=".43" cy=".43" r=".8"><stop offset="0%" stop-color="hsl(210, 40%, 50%)" stop-opacity=".3"/><stop offset="100%" stop-color="hsl(210, 40%, 50%)" stop-opacity="0"/></radialGradient><filter id="blur" width="200%" height="200%" x="-50%" y="-50%"><feGaussianBlur stdDeviation="30"/></filter></defs><rect width="100%" height="100%" fill="url(#bg)"/><rect width="100%" height="100%" fill="url(#glow)"/><g filter="url(#blur)"><circle cx="238" cy="272" r="335" fill="hsl(210, 60%, 45%)" opacity=".17"/><circle cx="1336" cy="62" r="216" fill="hsl(215, 60%, 45%)" opacity=".23"/><circle cx="1282" cy="196" r="262" fill="hsl(220, 60%, 45%)" opacity=".12"/><circle cx="1329" cy="507" r="292" fill="hsl(200, 60%, 45%)" opacity=".11"/></g><g><rect width="44" height="4" x="1361" y="737" fill="hsl(201, 30%, 50%)" opacity=".13"/><rect width="111" height="46" x="404" y="0" fill="hsl(206, 30%, 45%)" opacity=".08" rx="2"/><rect width="106" height="91" x="1084" y="80" fill="hsl(211, 30%, 45%)" opacity=".15" rx="2"/><rect width="125" height="10" x="332" y="292" fill="hsl(213, 30%, 50%)" opacity=".22"/><rect width="88" height="72" x="1111" y="353" fill="hsl(220, 30%, 45%)" opacity=".08" rx="2"/></g><g><line x1="733" x2="576" y1="413" y2="576" stroke="hsl(210, 35%, 45%)" stroke-width="1" opacity=".27"/><line x1="597" x2="1312" y1="569" y2="659" stroke="hsl(210, 35%, 45%)" stroke-width="1" opacity=".3"/><line x1="284" x2="424" y1="109" y2="283" stroke="hsl(210, 35%, 45%)" stroke-width="1" opacity=".38"/><line x1="53" x2="883" y1="71" y2="722" stroke="hsl(210, 35%, 45%)" stroke-width="1" opacity=".33"/></g><rect width="277" height="50" x="850" y="259" fill="hsl(210, 40%, 50%)" opacity=".15" rx="20"/></svg>