<svg xmlns="http://www.w3.org/2000/svg" width="1376" height="768" viewBox="0 0 1376 768"><defs><linearGradient id="bg" x1="0" x2="1" y1="0" y2="1"><stop offset="0%" stop-color="hsl(210, 25%, 8%)"/><stop offset="100%" stop-color="hsl(215, 30%, 14%)"/></linearGradient><radialGradient id="glow" cx=".38" cy=".28" r=".8"><stop offset="0%" stop-color="hsl(210, 40%, 50%)" stop-opacity=".3"/><stop offset="100%" stop-color="hsl(210, 40%, 50%)" stop-opacity="0"/></radialGradient><filter id="blur" width="200%" height="200%" x="-50%" y="-50%"><feGaussianBlur stdDeviation="30"/></filter></defs><rect width="100%" height="100%" fill="url(#bg)"/><rect width="100%" height="100%" fill="url(#glow)"/><g filter="url(#blur)"><circle cx="264" cy="14" r="166" fill="hsl(210, 60%, 45%)" opacity=".28"/><circle cx="975" cy="11" r="271" fill="hsl(215, 60%, 45%)" opacity=".15"/><circle cx="943" cy="442" r="337" fill="hsl(220, 60%, 45%)" opacity=".23"/><circle cx="1349" cy="578" r="293" fill="hsl(200, 60%, 45%)" opacity=".16"/></g><g><rect width="78" height="6" x="129" y="637" fill="hsl(208, 30%, 50%)" opacity=".17"/><rect width="94" height="8" x="1350" y="448" fill="hsl(211, 30%, 50%)" opacity=".18"/><rect width="116" height="9" x="292" y="132" fill="hsl(209, 30%, 50%)" opacity=".16"/><rect width="154" height="12" x="228" y="96" fill="hsl(203, 30%, 50%)" opacity=".15"/><rect width="206" height="73" x="649" y="481" fill="hsl(202, 30%, 45%)" opacity=".1" rx="2"/><rect width="116" height="85" x="203" y="265" fill="hsl(207, 30%, 45%)" opacity=".2" rx="2"/><rect width="98" height="90" x="1349" y="42" fill="hsl(222, 30%, 45%)" opacity=".08" rx="2"/></g><g><line x1="771" x2="459" y1="650" y2="399" stroke="hsl(210, 35%, 45%)" stroke-width="1" opacity=".39"/><line x1="571" x2="163" y1="212" y2="81" stroke="hsl(210, 35%, 45%)" stroke-width="1" opacity=".32"/><line x1="667" x2="1306" y1="546" y2="418" stroke="hsl(210, 35%, 45%)" stroke-width="1" opacity=".23"/><line x1="1106" x2="1277" y1="555" y2="373" stroke="hsl(210, 35%, 45%)" stroke-width="1" opacity=".24"/></g><rect width="228" height="97" x="801" y="234" fill="hsl(210, 40%, 50%)" opacity=".15" rx="20"/></svg>