<svg xmlns="http://www.w3.org/2000/svg" width="1376" height="768" viewBox="0 0 1376 768"><defs><linearGradient id="bg" x1="0" x2="1" y1="0" y2="1"><stop offset="0%" stop-color="hsl(210, 25%, 8%)"/><stop offset="100%" stop-color="hsl(215, 30%, 14%)"/></linearGradient><radialGradient id="glow" cx=".2" cy=".18" r=".8"><stop offset="0%" stop-color="hsl(210, 40%, 50%)" stop-opacity=".3"/><stop offset="100%" stop-color="hsl(210, 40%, 50%)" stop-opacity="0"/></radialGradient><filter id="blur" width="200%" height="200%" x="-50%" y="-50%"><feGaussianBlur stdDeviation="30"/></filter></defs><rect width="100%" height="100%" fill="url(#bg)"/><rect width="100%" height="100%" fill="url(#glow)"/><g filter="url(#blur)"><circle cx="107" cy="363" r="346" fill="hsl(210, 60%, 45%)" opacity=".3"/><circle cx="238" cy="452" r="338" fill="hsl(215, 60%, 45%)" opacity=".22"/><circle cx="856" cy="221" r="174" fill="hsl(220, 60%, 45%)" opacity=".18"/><circle cx="247" cy="377" r="312" fill="hsl(200, 60%, 45%)" opacity=".16"/></g><g><rect width="53" height="4" x="111" y="111" fill="hsl(206, 30%, 50%)" opacity=".2"/><rect width="124" height="121" x="623" y="735" fill="hsl(216, 30%, 45%)" opacity=".17" rx="2"/><rect width="173" height="88" x="710" y="74" fill="hsl(214, 30%, 45%)" opacity=".06" rx="2"/><rect width="66" height="5" x="159" y="211" fill="hsl(213, 30%, 50%)" opacity=".18"/><rect width="200" height="154" x="1070" y="499" fill="hsl(203, 30%, 45%)" opacity=".09" rx="2"/><rect width="90" height="85" x="960" y="485" fill="hsl(213, 30%, 45%)" opacity=".09" rx="2"/><rect width="80" height="42" x="281" y="142" fill="hsl(207, 30%, 45%)" opacity=".14" rx="2"/></g><g><line x1="221" x2="891" y1="348" y2="6" stroke="hsl(210, 35%, 45%)" stroke-width="1" opacity=".25"/><line x1="274" x2="81" y1="141" y2="30" stroke="hsl(210, 35%, 45%)" stroke-width="1" opacity=".36"/><line x1="847" x2="558" y1="167" y2="610" stroke="hsl(210, 35%, 45%)" stroke-width="1" opacity=".36"/><line x1="913" x2="359" y1="635" y2="355" stroke="hsl(210, 35%, 45%)" stroke-width="1" opacity=".22"/></g><rect width="338" height="52" x="962" y="224" fill="hsl(210, 40%, 50%)" opacity=".15" rx="20"/></svg>