<svg width="1376" height="768" viewBox="0 0 1376 768" xmlns="http://www.w3.org/2000/svg">
  <defs>
    <linearGradient id="bg" x1="0" y1="0" x2="1" y2="1">
      <stop offset="0%" stop-color="hsl(30, 40%, 10%)" />
      <stop offset="100%" stop-color="hsl(35, 50%, 16%)" />
    </linearGradient>
    <radialGradient id="glow" cx="0.13" cy="0.33" r="0.8">
      <stop offset="0%" stop-color="hsl(40, 80%, 55%)" stop-opacity="0.4" />
      <stop offset="100%" stop-color="hsl(40, 80%, 55%)" stop-opacity="0" />
    </radialGradient>
    <filter id="blur" x="-50%" y="-50%" width="200%" height="200%">
      <feGaussianBlur stdDeviation="30" />
    </filter>
  </defs>
  <rect width="100%" height="100%" fill="url(#bg)" />
  <rect width="100%" height="100%" fill="url(#glow)" />
  <g filter="url(#blur)">
<circle cx="514" cy="266" r="226" fill="hsl(35, 60%, 45%)" opacity="0.15" />
<circle cx="1325" cy="227" r="333" fill="hsl(40, 60%, 45%)" opacity="0.11" />
<circle cx="1172" cy="727" r="153" fill="hsl(45, 60%, 45%)" opacity="0.22" />
<circle cx="411" cy="171" r="193" fill="hsl(30, 60%, 45%)" opacity="0.14" />
  </g>
  <g>
<ellipse cx="19" cy="336" rx="133" ry="105" transform="rotate(42 19 336)" fill="hsl(42, 65%, 50%)" opacity="0.12" />
<ellipse cx="1126" cy="39" rx="123" ry="161" transform="rotate(108 1126 39)" fill="hsl(44, 65%, 50%)" opacity="0.25" />
<ellipse cx="810" cy="420" rx="106" ry="168" transform="rotate(68 810 420)" fill="hsl(49, 65%, 50%)" opacity="0.23" />
<ellipse cx="1005" cy="562" rx="178" ry="135" transform="rotate(224 1005 562)" fill="hsl(46, 65%, 50%)" opacity="0.08" />
<ellipse cx="1075" cy="4" rx="263" ry="72" transform="rotate(88 1075 4)" fill="hsl(32, 65%, 50%)" opacity="0.19" />
  </g>
  <g>
<line x1="916" y1="478" x2="999" y2="595" stroke="hsl(35, 70%, 55%)" stroke-width="2" opacity="0.32" />
<line x1="809" y1="758" x2="92" y2="330" stroke="hsl(35, 70%, 55%)" stroke-width="2" opacity="0.40" />
<line x1="1148" y1="27" x2="574" y2="518" stroke="hsl(35, 70%, 55%)" stroke-width="2" opacity="0.22" />
<line x1="572" y1="635" x2="1125" y2="40" stroke="hsl(35, 70%, 55%)" stroke-width="2" opacity="0.19" />
  </g>
  <rect x="774" y="256" width="289" height="86" rx="20" fill="hsl(40, 80%, 55%)" opacity="0.15" />
</svg>