<svg xmlns="http://www.w3.org/2000/svg" width="1376" height="768" viewBox="0 0 1376 768"><defs><linearGradient id="bg" x1="0" x2="1" y1="0" y2="1"><stop offset="0%" stop-color="hsl(30, 40%, 10%)"/><stop offset="100%" stop-color="hsl(35, 50%, 16%)"/></linearGradient><radialGradient id="glow" cx=".13" cy=".33" r=".8"><stop offset="0%" stop-color="hsl(40, 80%, 55%)" stop-opacity=".4"/><stop offset="100%" stop-color="hsl(40, 80%, 55%)" stop-opacity="0"/></radialGradient><filter id="blur" width="200%" height="200%" x="-50%" y="-50%"><feGaussianBlur stdDeviation="30"/></filter></defs><rect width="100%" height="100%" fill="url(#bg)"/><rect width="100%" height="100%" fill="url(#glow)"/><g filter="url(#blur)"><circle cx="514" cy="266" r="226" fill="hsl(35, 60%, 45%)" opacity=".15"/><circle cx="1325" cy="227" r="333" fill="hsl(40, 60%, 45%)" opacity=".11"/><circle cx="1172" cy="727" r="153" fill="hsl(45, 60%, 45%)" opacity=".22"/><circle cx="411" cy="171" r="193" fill="hsl(30, 60%, 45%)" opacity=".14"/></g><g><ellipse cx="19" cy="336" fill="hsl(42, 65%, 50%)" opacity=".12" rx="133" ry="105" transform="rotate(42 19 336)"/><ellipse cx="1126" cy="39" fill="hsl(44, 65%, 50%)" opacity=".25" rx="123" ry="161" transform="rotate(108 1126 39)"/><ellipse cx="810" cy="420" fill="hsl(49, 65%, 50%)" opacity=".23" rx="106" ry="168" transform="rotate(68 810 420)"/><ellipse cx="1005" cy="562" fill="hsl(46, 65%, 50%)" opacity=".08" rx="178" ry="135" transform="rotate(224 1005 562)"/><ellipse cx="1075" cy="4" fill="hsl(32, 65%, 50%)" opacity=".19" rx="263" ry="72" transform="rotate(88 1075 4)"/></g><g><line x1="916" x2="999" y1="478" y2="595" stroke="hsl(35, 70%, 55%)" stroke-width="2" opacity=".32"/><line x1="809" x2="92" y1="758" y2="330" stroke="hsl(35, 70%, 55%)" stroke-width="2" opacity=".4"/><line x1="1148" x2="574" y1="27" y2="518" stroke="hsl(35, 70%, 55%)" stroke-width="2" opacity=".22"/><line x1="572" x2="1125" y1="635" y2="40" stroke="hsl(35, 70%, 55%)" stroke-width="2" opacity=".19"/></g><rect width="289" height="86" x="774" y="256" fill="hsl(40, 80%, 55%)" opacity=".15" rx="20"/></svg>