<svg xmlns="http://www.w3.org/2000/svg" width="1376" height="768" viewBox="0 0 1376 768"><defs><linearGradient id="bg" x1="0" x2="1" y1="0" y2="1"><stop offset="0%" stop-color="hsl(30, 40%, 10%)"/><stop offset="100%" stop-color="hsl(35, 50%, 16%)"/></linearGradient><radialGradient id="glow" cx=".49" cy=".33" r=".8"><stop offset="0%" stop-color="hsl(40, 80%, 55%)" stop-opacity=".4"/><stop offset="100%" stop-color="hsl(40, 80%, 55%)" stop-opacity="0"/></radialGradient><filter id="blur" width="200%" height="200%" x="-50%" y="-50%"><feGaussianBlur stdDeviation="30"/></filter></defs><rect width="100%" height="100%" fill="url(#bg)"/><rect width="100%" height="100%" fill="url(#glow)"/><g filter="url(#blur)"><circle cx="487" cy="178" r="296" fill="hsl(35, 60%, 45%)" opacity=".14"/><circle cx="4" cy="526" r="162" fill="hsl(40, 60%, 45%)" opacity=".2"/><circle cx="542" cy="294" r="288" fill="hsl(45, 60%, 45%)" opacity=".12"/><circle cx="646" cy="415" r="347" fill="hsl(30, 60%, 45%)" opacity=".21"/></g><g><ellipse cx="568" cy="692" fill="hsl(34, 65%, 50%)" opacity=".15" rx="110" ry="159" transform="rotate(18 568 692)"/><ellipse cx="578" cy="331" fill="hsl(30, 65%, 50%)" opacity=".19" rx="91" ry="118" transform="rotate(194 578 331)"/><ellipse cx="634" cy="666" fill="hsl(37, 65%, 50%)" opacity=".11" rx="212" ry="130" transform="rotate(320 634 666)"/><ellipse cx="312" cy="439" fill="hsl(38, 65%, 50%)" opacity=".14" rx="232" ry="114" transform="rotate(48 312 439)"/><ellipse cx="1355" cy="147" fill="hsl(30, 65%, 50%)" opacity=".22" rx="277" ry="72" transform="rotate(219 1355 147)"/></g><g><line x1="1065" x2="46" y1="98" y2="184" stroke="hsl(35, 70%, 55%)" stroke-width="2" opacity=".33"/><line x1="680" x2="1241" y1="543" y2="357" stroke="hsl(35, 70%, 55%)" stroke-width="2" opacity=".38"/><line x1="1217" x2="853" y1="141" y2="206" stroke="hsl(35, 70%, 55%)" stroke-width="2" opacity=".22"/><line x1="762" x2="556" y1="669" y2="132" stroke="hsl(35, 70%, 55%)" stroke-width="2" opacity=".28"/></g><rect width="165" height="75" x="1141" y="149" fill="hsl(40, 80%, 55%)" opacity=".15" rx="20"/></svg>