<svg xmlns="http://www.w3.org/2000/svg" width="1376" height="768" viewBox="0 0 1376 768"><defs><linearGradient id="bg" x1="0" x2="1" y1="0" y2="1"><stop offset="0%" stop-color="hsl(30, 40%, 10%)"/><stop offset="100%" stop-color="hsl(35, 50%, 16%)"/></linearGradient><radialGradient id="glow" cx=".18" cy=".43" r=".8"><stop offset="0%" stop-color="hsl(40, 80%, 55%)" stop-opacity=".4"/><stop offset="100%" stop-color="hsl(40, 80%, 55%)" stop-opacity="0"/></radialGradient><filter id="blur" width="200%" height="200%" x="-50%" y="-50%"><feGaussianBlur stdDeviation="30"/></filter></defs><rect width="100%" height="100%" fill="url(#bg)"/><rect width="100%" height="100%" fill="url(#glow)"/><g filter="url(#blur)"><circle cx="837" cy="359" r="346" fill="hsl(35, 60%, 45%)" opacity=".13"/><circle cx="739" cy="16" r="219" fill="hsl(40, 60%, 45%)" opacity=".13"/><circle cx="1026" cy="345" r="340" fill="hsl(45, 60%, 45%)" opacity=".27"/><circle cx="593" cy="432" r="268" fill="hsl(30, 60%, 45%)" opacity=".29"/></g><g><ellipse cx="67" cy="125" fill="hsl(31, 65%, 50%)" opacity=".14" rx="231" ry="154" transform="rotate(268 67 125)"/><ellipse cx="721" cy="553" fill="hsl(31, 65%, 50%)" opacity=".17" rx="121" ry="179" transform="rotate(347 721 553)"/><ellipse cx="847" cy="172" fill="hsl(45, 65%, 50%)" opacity=".09" rx="129" ry="105" transform="rotate(116 847 172)"/><ellipse cx="1243" cy="190" fill="hsl(49, 65%, 50%)" opacity=".24" rx="121" ry="177" transform="rotate(186 1243 190)"/><ellipse cx="694" cy="647" fill="hsl(40, 65%, 50%)" opacity=".17" rx="155" ry="118" transform="rotate(62 694 647)"/><ellipse cx="757" cy="754" fill="hsl(47, 65%, 50%)" opacity=".22" rx="252" ry="122" transform="rotate(104 757 754)"/><ellipse cx="827" cy="437" fill="hsl(46, 65%, 50%)" opacity=".15" rx="138" ry="63" transform="rotate(160 827 437)"/></g><g><line x1="461" x2="546" y1="184" y2="297" stroke="hsl(35, 70%, 55%)" stroke-width="2" opacity=".28"/><line x1="27" x2="1375" y1="38" y2="194" stroke="hsl(35, 70%, 55%)" stroke-width="2" opacity=".21"/><line x1="906" x2="938" y1="210" y2="79" stroke="hsl(35, 70%, 55%)" stroke-width="2" opacity=".4"/></g><rect width="300" height="75" x="758" y="91" fill="hsl(40, 80%, 55%)" opacity=".15" rx="20"/></svg>