<svg width="1376" height="768" viewBox="0 0 1376 768" xmlns="http://www.w3.org/2000/svg">
  <defs>
    <linearGradient id="bg" x1="0" y1="0" x2="1" y2="1">
      <stop offset="0%" stop-color="hsl(30, 40%, 10%)" />
      <stop offset="100%" stop-color="hsl(35, 50%, 16%)" />
    </linearGradient>
    <radialGradient id="glow" cx="0.49" cy="0.33" r="0.8">
      <stop offset="0%" stop-color="hsl(40, 80%, 55%)" stop-opacity="0.4" />
      <stop offset="100%" stop-color="hsl(40, 80%, 55%)" stop-opacity="0" />
    </radialGradient>
    <filter id="blur" x="-50%" y="-50%" width="200%" height="200%">
      <feGaussianBlur stdDeviation="30" />
    </filter>
  </defs>
  <rect width="100%" height="100%" fill="url(#bg)" />
  <rect width="100%" height="100%" fill="url(#glow)" />
  <g filter="url(#blur)">
<circle cx="487" cy="178" r="296" fill="hsl(35, 60%, 45%)" opacity="0.14" />
<circle cx="4" cy="526" r="162" fill="hsl(40, 60%, 45%)" opacity="0.20" />
<circle cx="542" cy="294" r="288" fill="hsl(45, 60%, 45%)" opacity="0.12" />
<circle cx="646" cy="415" r="347" fill="hsl(30, 60%, 45%)" opacity="0.21" />
  </g>
  <g>
<ellipse cx="568" cy="692" rx="110" ry="159" transform="rotate(18 568 692)" fill="hsl(34, 65%, 50%)" opacity="0.15" />
<ellipse cx="578" cy="331" rx="91" ry="118" transform="rotate(194 578 331)" fill="hsl(30, 65%, 50%)" opacity="0.19" />
<ellipse cx="634" cy="666" rx="212" ry="130" transform="rotate(320 634 666)" fill="hsl(37, 65%, 50%)" opacity="0.11" />
<ellipse cx="312" cy="439" rx="232" ry="114" transform="rotate(48 312 439)" fill="hsl(38, 65%, 50%)" opacity="0.14" />
<ellipse cx="1355" cy="147" rx="277" ry="72" transform="rotate(219 1355 147)" fill="hsl(30, 65%, 50%)" opacity="0.22" />
  </g>
  <g>
<line x1="1065" y1="98" x2="46" y2="184" stroke="hsl(35, 70%, 55%)" stroke-width="2" opacity="0.33" />
<line x1="680" y1="543" x2="1241" y2="357" stroke="hsl(35, 70%, 55%)" stroke-width="2" opacity="0.38" />
<line x1="1217" y1="141" x2="853" y2="206" stroke="hsl(35, 70%, 55%)" stroke-width="2" opacity="0.22" />
<line x1="762" y1="669" x2="556" y2="132" stroke="hsl(35, 70%, 55%)" stroke-width="2" opacity="0.28" />
  </g>
  <rect x="1141" y="149" width="165" height="75" rx="20" fill="hsl(40, 80%, 55%)" opacity="0.15" />
</svg>