<svg xmlns="http://www.w3.org/2000/svg" width="1200" height="630" viewBox="0 0 1200 630"><defs><linearGradient id="bg" x1="0" x2="1" y1="0" y2="1"><stop offset="0%" stop-color="hsl(260, 45%, 10%)"/><stop offset="100%" stop-color="hsl(270, 50%, 16%)"/></linearGradient><radialGradient id="glow" cx=".48" cy=".35" r=".8"><stop offset="0%" stop-color="hsl(265, 70%, 60%)" stop-opacity=".45"/><stop offset="100%" stop-color="hsl(265, 70%, 60%)" stop-opacity="0"/></radialGradient><filter id="blur" width="200%" height="200%" x="-50%" y="-50%"><feGaussianBlur stdDeviation="30"/></filter></defs><rect width="100%" height="100%" fill="url(#bg)"/><rect width="100%" height="100%" fill="url(#glow)"/><g filter="url(#blur)"><circle cx="842" cy="551" r="248" fill="hsl(260, 60%, 45%)" opacity=".16"/><circle cx="186" cy="272" r="349" fill="hsl(265, 60%, 45%)" opacity=".15"/><circle cx="998" cy="485" r="315" fill="hsl(270, 60%, 45%)" opacity=".27"/><circle cx="824" cy="469" r="223" fill="hsl(40, 60%, 45%)" opacity=".25"/></g><g><polygon fill="hsl(263, 60%, 55%)" points="1041 219 999 266 955 233 949 171 985 126 1029 151" opacity=".12"/><polygon fill="hsl(262, 60%, 55%)" points="131 217 69 271 2 243 -47 195 50 116 95 136" opacity=".15"/><polygon fill="hsl(257, 60%, 55%)" points="387 288 271 484 149 385 73 242 241 96 376 160" opacity=".16"/><polygon fill="hsl(272, 60%, 55%)" points="1307 357 1166 469 1063 533 906 453 944 278 1022 166 1148 154 1289 243" opacity=".19"/><polygon fill="hsl(273, 60%, 55%)" points="897 342 719 448 581 359 571 163 784 123" opacity=".14"/></g><g><line x1="1083" x2="583" y1="244" y2="92" stroke="hsl(45, 80%, 60%)" stroke-width="2" opacity=".22"/><line x1="80" x2="200" y1="206" y2="271" stroke="hsl(45, 80%, 60%)" stroke-width="2" opacity=".26"/><line x1="54" x2="231" y1="621" y2="316" stroke="hsl(45, 80%, 60%)" stroke-width="2" opacity=".37"/><line x1="147" x2="582" y1="10" y2="3" stroke="hsl(45, 80%, 60%)" stroke-width="2" opacity=".25"/></g><rect width="243" height="45" x="923" y="138" fill="hsl(265, 70%, 60%)" opacity=".15" rx="20"/></svg>