<svg xmlns="http://www.w3.org/2000/svg" width="1200" height="630" viewBox="0 0 1200 630"><defs><linearGradient id="bg" x1="0" x2="1" y1="0" y2="1"><stop offset="0%" stop-color="hsl(260, 45%, 10%)"/><stop offset="100%" stop-color="hsl(270, 50%, 16%)"/></linearGradient><radialGradient id="glow" cx=".19" cy=".48" r=".8"><stop offset="0%" stop-color="hsl(265, 70%, 60%)" stop-opacity=".45"/><stop offset="100%" stop-color="hsl(265, 70%, 60%)" stop-opacity="0"/></radialGradient><filter id="blur" width="200%" height="200%" x="-50%" y="-50%"><feGaussianBlur stdDeviation="30"/></filter></defs><rect width="100%" height="100%" fill="url(#bg)"/><rect width="100%" height="100%" fill="url(#glow)"/><g filter="url(#blur)"><circle cx="960" cy="316" r="315" fill="hsl(260, 60%, 45%)" opacity=".25"/><circle cx="122" cy="41" r="269" fill="hsl(265, 60%, 45%)" opacity=".11"/><circle cx="467" cy="508" r="267" fill="hsl(270, 60%, 45%)" opacity=".3"/><circle cx="279" cy="532" r="292" fill="hsl(40, 60%, 45%)" opacity=".27"/></g><g><polygon fill="hsl(39, 75%, 55%)" points="1245 537 1213 601 1124 592 1069 541 1099 481 1168 437 1236 470" opacity=".19"/><polygon fill="hsl(273, 60%, 55%)" points="1016 278 1001 330 949 334 899 293 897 249 937 226 972 205 1002 251" opacity=".09"/><polygon fill="hsl(265, 60%, 55%)" points="644 244 546 349 428 420 308 291 289 167 379 70 462 -13 591 110" opacity=".2"/><polygon fill="hsl(257, 60%, 55%)" points="814 276 726 317 674 355 613 302 592 238 634 121 680 111 760 167" opacity=".14"/><polygon fill="hsl(45, 75%, 55%)" points="636 455 623 504 496 516 440 452 398 390 507 295 583 291 647 346" opacity=".09"/><polygon fill="hsl(257, 60%, 55%)" points="1097 366 1067 455 918 437 752 371 789 230 856 142 977 107 1055 210" opacity=".22"/><polygon fill="hsl(257, 60%, 55%)" points="484 322 401 426 223 327 240 174 425 125" opacity=".16"/></g><g><line x1="340" x2="1118" y1="183" y2="346" stroke="hsl(45, 80%, 60%)" stroke-width="2" opacity=".36"/><line x1="1076" x2="281" y1="614" y2="378" stroke="hsl(45, 80%, 60%)" stroke-width="2" opacity=".34"/><line x1="491" x2="724" y1="229" y2="407" stroke="hsl(45, 80%, 60%)" stroke-width="2" opacity=".26"/></g><rect width="224" height="69" x="948" y="120" fill="hsl(265, 70%, 60%)" opacity=".15" rx="20"/></svg>