<svg xmlns="http://www.w3.org/2000/svg" width="1200" height="630" viewBox="0 0 1200 630"><defs><linearGradient id="bg" x1="0" x2="1" y1="0" y2="1"><stop offset="0%" stop-color="hsl(260, 45%, 10%)"/><stop offset="100%" stop-color="hsl(270, 50%, 16%)"/></linearGradient><radialGradient id="glow" cx=".41" cy=".34" r=".8"><stop offset="0%" stop-color="hsl(265, 70%, 60%)" stop-opacity=".45"/><stop offset="100%" stop-color="hsl(265, 70%, 60%)" stop-opacity="0"/></radialGradient><filter id="blur" width="200%" height="200%" x="-50%" y="-50%"><feGaussianBlur stdDeviation="30"/></filter></defs><rect width="100%" height="100%" fill="url(#bg)"/><rect width="100%" height="100%" fill="url(#glow)"/><g filter="url(#blur)"><circle cx="374" cy="558" r="247" fill="hsl(260, 60%, 45%)" opacity=".18"/><circle cx="1027" cy="183" r="259" fill="hsl(265, 60%, 45%)" opacity=".2"/><circle cx="144" cy="388" r="319" fill="hsl(270, 60%, 45%)" opacity=".26"/><circle cx="514" cy="286" r="303" fill="hsl(40, 60%, 45%)" opacity=".11"/></g><g><polygon fill="hsl(44, 75%, 55%)" points="897 629 800 705 704 624 746 550 854 530" opacity=".19"/><polygon fill="hsl(259, 60%, 55%)" points="589 101 547 190 487 157 399 94 443 13 507 -17 613 31" opacity=".2"/><polygon fill="hsl(259, 60%, 55%)" points="887 544 741 612 607 570 669 330 838 380" opacity=".21"/><polygon fill="hsl(36, 75%, 55%)" points="875 82 831 170 730 185 699 105 679 -6 747 -41 865 -6" opacity=".18"/><polygon fill="hsl(263, 60%, 55%)" points="246 135 221 190 155 139 178 91 234 96" opacity=".23"/><polygon fill="hsl(45, 75%, 55%)" points="509 404 462 485 404 470 306 443 300 318 363 271 431 263 540 326" opacity=".19"/><polygon fill="hsl(270, 60%, 55%)" points="1337 438 1188 598 1051 520 1058 397 1121 330 1298 310" opacity=".08"/></g><g><line x1="1039" x2="381" y1="381" y2="142" stroke="hsl(45, 80%, 60%)" stroke-width="2" opacity=".32"/><line x1="203" x2="949" y1="470" y2="550" stroke="hsl(45, 80%, 60%)" stroke-width="2" opacity=".25"/><line x1="26" x2="927" y1="320" y2="342" stroke="hsl(45, 80%, 60%)" stroke-width="2" opacity=".22"/></g><rect width="332" height="82" x="1014" y="83" fill="hsl(265, 70%, 60%)" opacity=".15" rx="20"/></svg>