<svg width="1200" height="630" viewBox="0 0 1200 630" xmlns="http://www.w3.org/2000/svg">
  <defs>
    <linearGradient id="bg" x1="0" y1="0" x2="1" y2="1">
      <stop offset="0%" stop-color="hsl(260, 45%, 10%)" />
      <stop offset="100%" stop-color="hsl(270, 50%, 16%)" />
    </linearGradient>
    <radialGradient id="glow" cx="0.18" cy="0.19" r="0.8">
      <stop offset="0%" stop-color="hsl(265, 70%, 60%)" stop-opacity="0.45" />
      <stop offset="100%" stop-color="hsl(265, 70%, 60%)" stop-opacity="0" />
    </radialGradient>
    <filter id="blur" x="-50%" y="-50%" width="200%" height="200%">
      <feGaussianBlur stdDeviation="30" />
    </filter>
  </defs>
  <rect width="100%" height="100%" fill="url(#bg)" />
  <rect width="100%" height="100%" fill="url(#glow)" />
  <g filter="url(#blur)">
<circle cx="569" cy="487" r="270" fill="hsl(260, 60%, 45%)" opacity="0.21" />
<circle cx="1086" cy="214" r="323" fill="hsl(265, 60%, 45%)" opacity="0.27" />
<circle cx="860" cy="623" r="344" fill="hsl(270, 60%, 45%)" opacity="0.30" />
<circle cx="319" cy="132" r="340" fill="hsl(40, 60%, 45%)" opacity="0.27" />
  </g>
  <g>
<polygon points="1082,558 1039,604 968,574 985,521 1049,510" fill="hsl(273, 60%, 55%)" opacity="0.20" />
<polygon points="485,321 412,413 301,412 230,323 200,199 287,174 371,83 468,191" fill="hsl(257, 60%, 55%)" opacity="0.19" />
<polygon points="1035,612 988,643 946,645 923,599 925,550 980,524 1020,540" fill="hsl(270, 60%, 55%)" opacity="0.16" />
<polygon points="168,380 110,421 30,403 -3,363 -13,268 82,254 145,273" fill="hsl(265, 60%, 55%)" opacity="0.13" />
<polygon points="921,436 886,461 803,439 768,374 823,328 900,333" fill="hsl(267, 60%, 55%)" opacity="0.20" />
<polygon points="863,399 778,485 693,509 649,419 647,333 787,287 861,316" fill="hsl(257, 60%, 55%)" opacity="0.19" />
<polygon points="1162,522 1088,600 956,533 1037,435 1111,442" fill="hsl(259, 60%, 55%)" opacity="0.16" />
  </g>
  <g>
<line x1="193" y1="501" x2="509" y2="533" stroke="hsl(45, 80%, 60%)" stroke-width="2" opacity="0.21" />
<line x1="333" y1="302" x2="800" y2="271" stroke="hsl(45, 80%, 60%)" stroke-width="2" opacity="0.39" />
<line x1="1150" y1="410" x2="952" y2="345" stroke="hsl(45, 80%, 60%)" stroke-width="2" opacity="0.16" />
<line x1="990" y1="7" x2="722" y2="623" stroke="hsl(45, 80%, 60%)" stroke-width="2" opacity="0.15" />
  </g>
  <rect x="1006" y="221" width="157" height="56" rx="20" fill="hsl(265, 70%, 60%)" opacity="0.15" />
</svg>