<svg width="1200" height="630" viewBox="0 0 1200 630" xmlns="http://www.w3.org/2000/svg">
  <defs>
    <linearGradient id="bg" x1="0" y1="0" x2="1" y2="1">
      <stop offset="0%" stop-color="hsl(260, 45%, 10%)" />
      <stop offset="100%" stop-color="hsl(270, 50%, 16%)" />
    </linearGradient>
    <radialGradient id="glow" cx="0.41" cy="0.34" r="0.8">
      <stop offset="0%" stop-color="hsl(265, 70%, 60%)" stop-opacity="0.45" />
      <stop offset="100%" stop-color="hsl(265, 70%, 60%)" stop-opacity="0" />
    </radialGradient>
    <filter id="blur" x="-50%" y="-50%" width="200%" height="200%">
      <feGaussianBlur stdDeviation="30" />
    </filter>
  </defs>
  <rect width="100%" height="100%" fill="url(#bg)" />
  <rect width="100%" height="100%" fill="url(#glow)" />
  <g filter="url(#blur)">
<circle cx="374" cy="558" r="247" fill="hsl(260, 60%, 45%)" opacity="0.18" />
<circle cx="1027" cy="183" r="259" fill="hsl(265, 60%, 45%)" opacity="0.20" />
<circle cx="144" cy="388" r="319" fill="hsl(270, 60%, 45%)" opacity="0.26" />
<circle cx="514" cy="286" r="303" fill="hsl(40, 60%, 45%)" opacity="0.11" />
  </g>
  <g>
<polygon points="897,629 800,705 704,624 746,550 854,530" fill="hsl(44, 75%, 55%)" opacity="0.19" />
<polygon points="589,101 547,190 487,157 399,94 443,13 507,-17 613,31" fill="hsl(259, 60%, 55%)" opacity="0.20" />
<polygon points="887,544 741,612 607,570 669,330 838,380" fill="hsl(259, 60%, 55%)" opacity="0.21" />
<polygon points="875,82 831,170 730,185 699,105 679,-6 747,-41 865,-6" fill="hsl(36, 75%, 55%)" opacity="0.18" />
<polygon points="246,135 221,190 155,139 178,91 234,96" fill="hsl(263, 60%, 55%)" opacity="0.23" />
<polygon points="509,404 462,485 404,470 306,443 300,318 363,271 431,263 540,326" fill="hsl(45, 75%, 55%)" opacity="0.19" />
<polygon points="1337,438 1188,598 1051,520 1058,397 1121,330 1298,310" fill="hsl(270, 60%, 55%)" opacity="0.08" />
  </g>
  <g>
<line x1="1039" y1="381" x2="381" y2="142" stroke="hsl(45, 80%, 60%)" stroke-width="2" opacity="0.32" />
<line x1="203" y1="470" x2="949" y2="550" stroke="hsl(45, 80%, 60%)" stroke-width="2" opacity="0.25" />
<line x1="26" y1="320" x2="927" y2="342" stroke="hsl(45, 80%, 60%)" stroke-width="2" opacity="0.22" />
  </g>
  <rect x="1014" y="83" width="332" height="82" rx="20" fill="hsl(265, 70%, 60%)" opacity="0.15" />
</svg>