<svg width="1200" height="630" viewBox="0 0 1200 630" xmlns="http://www.w3.org/2000/svg">
  <defs>
    <linearGradient id="bg" x1="0" y1="0" x2="1" y2="1">
      <stop offset="0%" stop-color="hsl(220, 60%, 8%)" />
      <stop offset="100%" stop-color="hsl(200, 50%, 12%)" />
    </linearGradient>
    <radialGradient id="glow" cx="0.3" cy="0.4" r="0.7">
      <stop offset="0%" stop-color="hsl(190, 80%, 50%)" stop-opacity="0.25" />
      <stop offset="100%" stop-color="hsl(190, 80%, 50%)" stop-opacity="0" />
    </radialGradient>
    <radialGradient id="glow2" cx="0.8" cy="0.6" r="0.5">
      <stop offset="0%" stop-color="hsl(45, 80%, 55%)" stop-opacity="0.15" />
      <stop offset="100%" stop-color="hsl(45, 80%, 55%)" stop-opacity="0" />
    </radialGradient>
    <filter id="blur" x="-50%" y="-50%" width="200%" height="200%">
      <feGaussianBlur stdDeviation="40" />
    </filter>
    <filter id="textShadow">
      <feDropShadow dx="0" dy="2" stdDeviation="4" flood-color="#000" flood-opacity="0.5" />
    </filter>
  </defs>
  <rect width="100%" height="100%" fill="url(#bg)" />
  <rect width="100%" height="100%" fill="url(#glow)" />
  <rect width="100%" height="100%" fill="url(#glow2)" />
  <g filter="url(#blur)">
    <circle cx="350" cy="300" r="200" fill="hsl(190, 70%, 45%)" opacity="0.12" />
    <circle cx="900" cy="400" r="250" fill="hsl(45, 70%, 50%)" opacity="0.08" />
    <circle cx="150" cy="500" r="180" fill="hsl(270, 50%, 40%)" opacity="0.06" />
    <circle cx="1050" cy="150" r="160" fill="hsl(190, 60%, 40%)" opacity="0.10" />
  </g>
  <!-- Grid pattern -->
  <g opacity="0.04">
    <line x1="0" y1="0" x2="0" y2="630" stroke="white" stroke-width="1" />
    <line x1="120" y1="0" x2="120" y2="630" stroke="white" stroke-width="1" />
    <line x1="240" y1="0" x2="240" y2="630" stroke="white" stroke-width="1" />
    <line x1="360" y1="0" x2="360" y2="630" stroke="white" stroke-width="1" />
    <line x1="480" y1="0" x2="480" y2="630" stroke="white" stroke-width="1" />
    <line x1="600" y1="0" x2="600" y2="630" stroke="white" stroke-width="1" />
    <line x1="720" y1="0" x2="720" y2="630" stroke="white" stroke-width="1" />
    <line x1="840" y1="0" x2="840" y2="630" stroke="white" stroke-width="1" />
    <line x1="960" y1="0" x2="960" y2="630" stroke="white" stroke-width="1" />
    <line x1="1080" y1="0" x2="1080" y2="630" stroke="white" stroke-width="1" />
    <line x1="0" y1="63" x2="1200" y2="63" stroke="white" stroke-width="1" />
    <line x1="0" y1="126" x2="1200" y2="126" stroke="white" stroke-width="1" />
    <line x1="0" y1="189" x2="1200" y2="189" stroke="white" stroke-width="1" />
    <line x1="0" y1="252" x2="1200" y2="252" stroke="white" stroke-width="1" />
    <line x1="0" y1="315" x2="1200" y2="315" stroke="white" stroke-width="1" />
    <line x1="0" y1="378" x2="1200" y2="378" stroke="white" stroke-width="1" />
    <line x1="0" y1="441" x2="1200" y2="441" stroke="white" stroke-width="1" />
    <line x1="0" y1="504" x2="1200" y2="504" stroke="white" stroke-width="1" />
    <line x1="0" y1="567" x2="1200" y2="567" stroke="white" stroke-width="1" />
  </g>
  <!-- 3D cube icon -->
  <g transform="translate(80, 180)">
    <polygon points="50,0 100,28 100,84 50,112 0,84 0,28" fill="none" stroke="hsl(190, 80%, 50%)" stroke-width="2" opacity="0.6" />
    <line x1="50" y1="0" x2="50" y2="56" stroke="hsl(190, 80%, 50%)" stroke-width="2" opacity="0.4" />
    <line x1="0" y1="28" x2="50" y2="56" stroke="hsl(190, 80%, 50%)" stroke-width="2" opacity="0.4" />
    <line x1="100" y1="28" x2="50" y2="56" stroke="hsl(190, 80%, 50%)" stroke-width="2" opacity="0.4" />
  </g>
  <!-- Decorative connection lines -->
  <g opacity="0.15">
    <line x1="180" y1="236" x2="280" y2="220" stroke="hsl(190, 70%, 55%)" stroke-width="1.5" />
    <line x1="180" y1="236" x2="280" y2="340" stroke="hsl(45, 70%, 55%)" stroke-width="1.5" />
    <circle cx="280" cy="220" r="3" fill="hsl(190, 70%, 55%)" />
    <circle cx="280" cy="340" r="3" fill="hsl(45, 70%, 55%)" />
  </g>
  <!-- Title text -->
  <text x="320" y="240" font-family="system-ui, -apple-system, sans-serif" font-size="52" font-weight="800" fill="white" letter-spacing="-1" filter="url(#textShadow)">NextDocsSearch</text>
  <text x="320" y="300" font-family="system-ui, -apple-system, sans-serif" font-size="32" font-weight="600" fill="hsl(190, 70%, 65%)" letter-spacing="-0.5">Complete Feature Guide</text>
  <!-- Subtitle -->
  <text x="320" y="370" font-family="'Courier New', monospace" font-size="16" fill="rgba(255,255,255,0.5)" letter-spacing="2" text-transform="uppercase">3D SCENE  //  AI SEARCH  //  GAMIFICATION  //  SUPABASE</text>
  <!-- Feature count badge -->
  <rect x="320" y="400" width="180" height="36" rx="0" fill="rgba(0, 212, 255, 0.15)" stroke="rgba(0, 212, 255, 0.4)" stroke-width="1" />
  <text x="330" y="424" font-family="'Courier New', monospace" font-size="14" fill="hsl(190, 80%, 60%)" letter-spacing="1.5">10 FEATURES + SETUP</text>
  <!-- Author -->
  <text x="320" y="480" font-family="'Courier New', monospace" font-size="13" fill="rgba(255,255,255,0.35)" letter-spacing="2">ALEX WELCING  //  2026</text>
  <!-- Bottom accent line -->
  <rect x="0" y="620" width="1200" height="10" fill="hsl(190, 80%, 50%)" opacity="0.6" />
  <rect x="0" y="620" width="400" height="10" fill="hsl(45, 80%, 55%)" opacity="0.4" />
</svg>