<svg width="1200" height="630" viewBox="0 0 1200 630" xmlns="http://www.w3.org/2000/svg">
  <defs>
    <linearGradient id="bg" x1="0" y1="0" x2="1" y2="1">
      <stop offset="0%" stop-color="hsl(210, 25%, 8%)" />
      <stop offset="100%" stop-color="hsl(215, 30%, 14%)" />
    </linearGradient>
    <radialGradient id="glow" cx="0.12" cy="0.18" r="0.8">
      <stop offset="0%" stop-color="hsl(210, 40%, 50%)" stop-opacity="0.3" />
      <stop offset="100%" stop-color="hsl(210, 40%, 50%)" stop-opacity="0" />
    </radialGradient>
    <filter id="blur" x="-50%" y="-50%" width="200%" height="200%">
      <feGaussianBlur stdDeviation="30" />
    </filter>
  </defs>
  <rect width="100%" height="100%" fill="url(#bg)" />
  <rect width="100%" height="100%" fill="url(#glow)" />
  <g filter="url(#blur)">
<circle cx="194" cy="305" r="308" fill="hsl(210, 60%, 45%)" opacity="0.16" />
<circle cx="521" cy="299" r="292" fill="hsl(215, 60%, 45%)" opacity="0.19" />
<circle cx="365" cy="177" r="329" fill="hsl(220, 60%, 45%)" opacity="0.16" />
<circle cx="1008" cy="204" r="337" fill="hsl(200, 60%, 45%)" opacity="0.24" />
  </g>
  <g>
<rect x="72" y="451" width="87" height="7" fill="hsl(217, 30%, 50%)" opacity="0.22" />
<rect x="1065" y="183" width="69" height="6" fill="hsl(221, 30%, 50%)" opacity="0.20" />
<rect x="618" y="410" width="150" height="48" rx="2" fill="hsl(204, 30%, 45%)" opacity="0.08" />
<rect x="964" y="81" width="128" height="10" fill="hsl(200, 30%, 50%)" opacity="0.17" />
<rect x="870" y="241" width="131" height="10" fill="hsl(213, 30%, 50%)" opacity="0.11" />
<rect x="687" y="328" width="161" height="50" rx="2" fill="hsl(202, 30%, 45%)" opacity="0.09" />
  </g>
  <g>
<line x1="9" y1="120" x2="1003" y2="503" stroke="hsl(210, 35%, 45%)" stroke-width="1" opacity="0.34" />
<line x1="972" y1="390" x2="453" y2="265" stroke="hsl(210, 35%, 45%)" stroke-width="1" opacity="0.31" />
<line x1="417" y1="260" x2="1032" y2="409" stroke="hsl(210, 35%, 45%)" stroke-width="1" opacity="0.16" />
<line x1="846" y1="89" x2="132" y2="285" stroke="hsl(210, 35%, 45%)" stroke-width="1" opacity="0.35" />
  </g>
  <rect x="1008" y="81" width="161" height="77" rx="20" fill="hsl(210, 40%, 50%)" opacity="0.15" />
</svg>