<svg width="1200" height="630" viewBox="0 0 1200 630" xmlns="http://www.w3.org/2000/svg">
  <defs>
    <linearGradient id="bg" x1="0" y1="0" x2="1" y2="1">
      <stop offset="0%" stop-color="hsl(210, 25%, 8%)" />
      <stop offset="100%" stop-color="hsl(215, 30%, 14%)" />
    </linearGradient>
    <radialGradient id="glow" cx="0.30" cy="0.36" r="0.8">
      <stop offset="0%" stop-color="hsl(210, 40%, 50%)" stop-opacity="0.3" />
      <stop offset="100%" stop-color="hsl(210, 40%, 50%)" stop-opacity="0" />
    </radialGradient>
    <filter id="blur" x="-50%" y="-50%" width="200%" height="200%">
      <feGaussianBlur stdDeviation="30" />
    </filter>
  </defs>
  <rect width="100%" height="100%" fill="url(#bg)" />
  <rect width="100%" height="100%" fill="url(#glow)" />
  <g filter="url(#blur)">
<circle cx="469" cy="537" r="196" fill="hsl(210, 60%, 45%)" opacity="0.10" />
<circle cx="1181" cy="1" r="346" fill="hsl(215, 60%, 45%)" opacity="0.28" />
<circle cx="1045" cy="565" r="344" fill="hsl(220, 60%, 45%)" opacity="0.15" />
<circle cx="687" cy="559" r="202" fill="hsl(200, 60%, 45%)" opacity="0.29" />
  </g>
  <g>
<rect x="859" y="605" width="69" height="22" rx="2" fill="hsl(214, 30%, 45%)" opacity="0.10" />
<rect x="60" y="19" width="172" height="103" rx="2" fill="hsl(223, 30%, 45%)" opacity="0.18" />
<rect x="446" y="143" width="128" height="10" fill="hsl(218, 30%, 50%)" opacity="0.22" />
<rect x="897" y="501" width="206" height="16" fill="hsl(203, 30%, 50%)" opacity="0.13" />
<rect x="980" y="185" width="72" height="6" fill="hsl(201, 30%, 50%)" opacity="0.21" />
<rect x="147" y="210" width="116" height="44" rx="2" fill="hsl(212, 30%, 45%)" opacity="0.11" />
<rect x="844" y="353" width="57" height="49" rx="2" fill="hsl(222, 30%, 45%)" opacity="0.14" />
  </g>
  <g>
<line x1="969" y1="313" x2="983" y2="539" stroke="hsl(210, 35%, 45%)" stroke-width="1" opacity="0.27" />
<line x1="1165" y1="291" x2="504" y2="558" stroke="hsl(210, 35%, 45%)" stroke-width="1" opacity="0.21" />
<line x1="713" y1="228" x2="407" y2="124" stroke="hsl(210, 35%, 45%)" stroke-width="1" opacity="0.36" />
  </g>
  <rect x="940" y="72" width="284" height="78" rx="20" fill="hsl(210, 40%, 50%)" opacity="0.15" />
</svg>