<svg width="1200" height="630" viewBox="0 0 1200 630" xmlns="http://www.w3.org/2000/svg">
  <defs>
    <linearGradient id="bg" x1="0" y1="0" x2="1" y2="1">
      <stop offset="0%" stop-color="hsl(210, 25%, 8%)" />
      <stop offset="100%" stop-color="hsl(215, 30%, 14%)" />
    </linearGradient>
    <radialGradient id="glow" cx="0.14" cy="0.14" r="0.8">
      <stop offset="0%" stop-color="hsl(210, 40%, 50%)" stop-opacity="0.3" />
      <stop offset="100%" stop-color="hsl(210, 40%, 50%)" stop-opacity="0" />
    </radialGradient>
    <filter id="blur" x="-50%" y="-50%" width="200%" height="200%">
      <feGaussianBlur stdDeviation="30" />
    </filter>
  </defs>
  <rect width="100%" height="100%" fill="url(#bg)" />
  <rect width="100%" height="100%" fill="url(#glow)" />
  <g filter="url(#blur)">
<circle cx="188" cy="428" r="340" fill="hsl(210, 60%, 45%)" opacity="0.18" />
<circle cx="404" cy="374" r="277" fill="hsl(215, 60%, 45%)" opacity="0.15" />
<circle cx="715" cy="293" r="239" fill="hsl(220, 60%, 45%)" opacity="0.23" />
<circle cx="797" cy="521" r="192" fill="hsl(200, 60%, 45%)" opacity="0.11" />
  </g>
  <g>
<rect x="462" y="390" width="189" height="154" rx="2" fill="hsl(210, 30%, 45%)" opacity="0.18" />
<rect x="809" y="618" width="81" height="54" rx="2" fill="hsl(222, 30%, 45%)" opacity="0.10" />
<rect x="901" y="618" width="125" height="88" rx="2" fill="hsl(205, 30%, 45%)" opacity="0.14" />
<rect x="1052" y="166" width="146" height="12" fill="hsl(201, 30%, 50%)" opacity="0.23" />
<rect x="425" y="390" width="116" height="103" rx="2" fill="hsl(204, 30%, 45%)" opacity="0.10" />
  </g>
  <g>
<line x1="414" y1="365" x2="1180" y2="383" stroke="hsl(210, 35%, 45%)" stroke-width="1" opacity="0.17" />
<line x1="1032" y1="409" x2="819" y2="523" stroke="hsl(210, 35%, 45%)" stroke-width="1" opacity="0.21" />
<line x1="50" y1="9" x2="812" y2="68" stroke="hsl(210, 35%, 45%)" stroke-width="1" opacity="0.35" />
  </g>
  <rect x="885" y="89" width="285" height="61" rx="20" fill="hsl(210, 40%, 50%)" opacity="0.15" />
</svg>