<svg xmlns="http://www.w3.org/2000/svg" width="1200" height="630" viewBox="0 0 1200 630"><defs><linearGradient id="bg" x1="0" x2="1" y1="0" y2="1"><stop offset="0%" stop-color="hsl(210, 25%, 8%)"/><stop offset="100%" stop-color="hsl(215, 30%, 14%)"/></linearGradient><radialGradient id="glow" cx=".3" cy=".36" r=".8"><stop offset="0%" stop-color="hsl(210, 40%, 50%)" stop-opacity=".3"/><stop offset="100%" stop-color="hsl(210, 40%, 50%)" stop-opacity="0"/></radialGradient><filter id="blur" width="200%" height="200%" x="-50%" y="-50%"><feGaussianBlur stdDeviation="30"/></filter></defs><rect width="100%" height="100%" fill="url(#bg)"/><rect width="100%" height="100%" fill="url(#glow)"/><g filter="url(#blur)"><circle cx="469" cy="537" r="196" fill="hsl(210, 60%, 45%)" opacity=".1"/><circle cx="1181" cy="1" r="346" fill="hsl(215, 60%, 45%)" opacity=".28"/><circle cx="1045" cy="565" r="344" fill="hsl(220, 60%, 45%)" opacity=".15"/><circle cx="687" cy="559" r="202" fill="hsl(200, 60%, 45%)" opacity=".29"/></g><g><rect width="69" height="22" x="859" y="605" fill="hsl(214, 30%, 45%)" opacity=".1" rx="2"/><rect width="172" height="103" x="60" y="19" fill="hsl(223, 30%, 45%)" opacity=".18" rx="2"/><rect width="128" height="10" x="446" y="143" fill="hsl(218, 30%, 50%)" opacity=".22"/><rect width="206" height="16" x="897" y="501" fill="hsl(203, 30%, 50%)" opacity=".13"/><rect width="72" height="6" x="980" y="185" fill="hsl(201, 30%, 50%)" opacity=".21"/><rect width="116" height="44" x="147" y="210" fill="hsl(212, 30%, 45%)" opacity=".11" rx="2"/><rect width="57" height="49" x="844" y="353" fill="hsl(222, 30%, 45%)" opacity=".14" rx="2"/></g><g><line x1="969" x2="983" y1="313" y2="539" stroke="hsl(210, 35%, 45%)" stroke-width="1" opacity=".27"/><line x1="1165" x2="504" y1="291" y2="558" stroke="hsl(210, 35%, 45%)" stroke-width="1" opacity=".21"/><line x1="713" x2="407" y1="228" y2="124" stroke="hsl(210, 35%, 45%)" stroke-width="1" opacity=".36"/></g><rect width="284" height="78" x="940" y="72" fill="hsl(210, 40%, 50%)" opacity=".15" rx="20"/></svg>