<svg xmlns="http://www.w3.org/2000/svg" width="1200" height="630" viewBox="0 0 1200 630"><defs><linearGradient id="bg" x1="0" x2="1" y1="0" y2="1"><stop offset="0%" stop-color="hsl(210, 25%, 8%)"/><stop offset="100%" stop-color="hsl(215, 30%, 14%)"/></linearGradient><radialGradient id="glow" cx=".12" cy=".18" r=".8"><stop offset="0%" stop-color="hsl(210, 40%, 50%)" stop-opacity=".3"/><stop offset="100%" stop-color="hsl(210, 40%, 50%)" stop-opacity="0"/></radialGradient><filter id="blur" width="200%" height="200%" x="-50%" y="-50%"><feGaussianBlur stdDeviation="30"/></filter></defs><rect width="100%" height="100%" fill="url(#bg)"/><rect width="100%" height="100%" fill="url(#glow)"/><g filter="url(#blur)"><circle cx="194" cy="305" r="308" fill="hsl(210, 60%, 45%)" opacity=".16"/><circle cx="521" cy="299" r="292" fill="hsl(215, 60%, 45%)" opacity=".19"/><circle cx="365" cy="177" r="329" fill="hsl(220, 60%, 45%)" opacity=".16"/><circle cx="1008" cy="204" r="337" fill="hsl(200, 60%, 45%)" opacity=".24"/></g><g><rect width="87" height="7" x="72" y="451" fill="hsl(217, 30%, 50%)" opacity=".22"/><rect width="69" height="6" x="1065" y="183" fill="hsl(221, 30%, 50%)" opacity=".2"/><rect width="150" height="48" x="618" y="410" fill="hsl(204, 30%, 45%)" opacity=".08" rx="2"/><rect width="128" height="10" x="964" y="81" fill="hsl(200, 30%, 50%)" opacity=".17"/><rect width="131" height="10" x="870" y="241" fill="hsl(213, 30%, 50%)" opacity=".11"/><rect width="161" height="50" x="687" y="328" fill="hsl(202, 30%, 45%)" opacity=".09" rx="2"/></g><g><line x1="9" x2="1003" y1="120" y2="503" stroke="hsl(210, 35%, 45%)" stroke-width="1" opacity=".34"/><line x1="972" x2="453" y1="390" y2="265" stroke="hsl(210, 35%, 45%)" stroke-width="1" opacity=".31"/><line x1="417" x2="1032" y1="260" y2="409" stroke="hsl(210, 35%, 45%)" stroke-width="1" opacity=".16"/><line x1="846" x2="132" y1="89" y2="285" stroke="hsl(210, 35%, 45%)" stroke-width="1" opacity=".35"/></g><rect width="161" height="77" x="1008" y="81" fill="hsl(210, 40%, 50%)" opacity=".15" rx="20"/></svg>