<svg xmlns="http://www.w3.org/2000/svg" width="1200" height="630" viewBox="0 0 1200 630"><defs><linearGradient id="bg" x1="0" x2="1" y1="0" y2="1"><stop offset="0%" stop-color="hsl(210, 25%, 8%)"/><stop offset="100%" stop-color="hsl(215, 30%, 14%)"/></linearGradient><radialGradient id="glow" cx=".14" cy=".14" r=".8"><stop offset="0%" stop-color="hsl(210, 40%, 50%)" stop-opacity=".3"/><stop offset="100%" stop-color="hsl(210, 40%, 50%)" stop-opacity="0"/></radialGradient><filter id="blur" width="200%" height="200%" x="-50%" y="-50%"><feGaussianBlur stdDeviation="30"/></filter></defs><rect width="100%" height="100%" fill="url(#bg)"/><rect width="100%" height="100%" fill="url(#glow)"/><g filter="url(#blur)"><circle cx="188" cy="428" r="340" fill="hsl(210, 60%, 45%)" opacity=".18"/><circle cx="404" cy="374" r="277" fill="hsl(215, 60%, 45%)" opacity=".15"/><circle cx="715" cy="293" r="239" fill="hsl(220, 60%, 45%)" opacity=".23"/><circle cx="797" cy="521" r="192" fill="hsl(200, 60%, 45%)" opacity=".11"/></g><g><rect width="189" height="154" x="462" y="390" fill="hsl(210, 30%, 45%)" opacity=".18" rx="2"/><rect width="81" height="54" x="809" y="618" fill="hsl(222, 30%, 45%)" opacity=".1" rx="2"/><rect width="125" height="88" x="901" y="618" fill="hsl(205, 30%, 45%)" opacity=".14" rx="2"/><rect width="146" height="12" x="1052" y="166" fill="hsl(201, 30%, 50%)" opacity=".23"/><rect width="116" height="103" x="425" y="390" fill="hsl(204, 30%, 45%)" opacity=".1" rx="2"/></g><g><line x1="414" x2="1180" y1="365" y2="383" stroke="hsl(210, 35%, 45%)" stroke-width="1" opacity=".17"/><line x1="1032" x2="819" y1="409" y2="523" stroke="hsl(210, 35%, 45%)" stroke-width="1" opacity=".21"/><line x1="50" x2="812" y1="9" y2="68" stroke="hsl(210, 35%, 45%)" stroke-width="1" opacity=".35"/></g><rect width="285" height="61" x="885" y="89" fill="hsl(210, 40%, 50%)" opacity=".15" rx="20"/></svg>