<svg xmlns="http://www.w3.org/2000/svg" width="1200" height="630" viewBox="0 0 1200 630"><defs><linearGradient id="bg" x1="0" x2="1" y1="0" y2="1"><stop offset="0%" stop-color="hsl(210, 25%, 8%)"/><stop offset="100%" stop-color="hsl(215, 30%, 14%)"/></linearGradient><radialGradient id="glow" cx=".36" cy=".25" r=".8"><stop offset="0%" stop-color="hsl(210, 40%, 50%)" stop-opacity=".3"/><stop offset="100%" stop-color="hsl(210, 40%, 50%)" stop-opacity="0"/></radialGradient><filter id="blur" width="200%" height="200%" x="-50%" y="-50%"><feGaussianBlur stdDeviation="30"/></filter></defs><rect width="100%" height="100%" fill="url(#bg)"/><rect width="100%" height="100%" fill="url(#glow)"/><g filter="url(#blur)"><circle cx="1006" cy="328" r="199" fill="hsl(210, 60%, 45%)" opacity=".17"/><circle cx="101" cy="296" r="310" fill="hsl(215, 60%, 45%)" opacity=".27"/><circle cx="1019" cy="197" r="216" fill="hsl(220, 60%, 45%)" opacity=".2"/><circle cx="253" cy="74" r="214" fill="hsl(200, 60%, 45%)" opacity=".13"/></g><g><rect width="179" height="162" x="380" y="329" fill="hsl(204, 30%, 45%)" opacity=".2" rx="2"/><rect width="152" height="12" x="647" y="278" fill="hsl(213, 30%, 50%)" opacity=".14"/><rect width="102" height="47" x="841" y="481" fill="hsl(219, 30%, 45%)" opacity=".13" rx="2"/><rect width="105" height="8" x="453" y="58" fill="hsl(210, 30%, 50%)" opacity=".15"/><rect width="198" height="16" x="49" y="275" fill="hsl(209, 30%, 50%)" opacity=".14"/></g><g><line x1="687" x2="916" y1="12" y2="525" stroke="hsl(210, 35%, 45%)" stroke-width="1" opacity=".38"/><line x1="409" x2="279" y1="541" y2="264" stroke="hsl(210, 35%, 45%)" stroke-width="1" opacity=".31"/><line x1="1077" x2="167" y1="138" y2="591" stroke="hsl(210, 35%, 45%)" stroke-width="1" opacity=".38"/></g><rect width="153" height="62" x="777" y="247" fill="hsl(210, 40%, 50%)" opacity=".15" rx="20"/></svg>