<svg width="1200" height="630" viewBox="0 0 1200 630" xmlns="http://www.w3.org/2000/svg">
  <defs>
    <linearGradient id="bg" x1="0" y1="0" x2="1" y2="1">
      <stop offset="0%" stop-color="hsl(210, 25%, 8%)" />
      <stop offset="100%" stop-color="hsl(215, 30%, 14%)" />
    </linearGradient>
    <radialGradient id="glow" cx="0.39" cy="0.14" r="0.8">
      <stop offset="0%" stop-color="hsl(210, 40%, 50%)" stop-opacity="0.3" />
      <stop offset="100%" stop-color="hsl(210, 40%, 50%)" stop-opacity="0" />
    </radialGradient>
    <filter id="blur" x="-50%" y="-50%" width="200%" height="200%">
      <feGaussianBlur stdDeviation="30" />
    </filter>
  </defs>
  <rect width="100%" height="100%" fill="url(#bg)" />
  <rect width="100%" height="100%" fill="url(#glow)" />
  <g filter="url(#blur)">
<circle cx="259" cy="244" r="300" fill="hsl(210, 60%, 45%)" opacity="0.21" />
<circle cx="7" cy="167" r="223" fill="hsl(215, 60%, 45%)" opacity="0.14" />
<circle cx="78" cy="499" r="222" fill="hsl(220, 60%, 45%)" opacity="0.20" />
<circle cx="474" cy="488" r="247" fill="hsl(200, 60%, 45%)" opacity="0.28" />
  </g>
  <g>
<rect x="436" y="241" width="200" height="199" rx="2" fill="hsl(206, 30%, 45%)" opacity="0.18" />
<rect x="346" y="575" width="92" height="7" fill="hsl(202, 30%, 50%)" opacity="0.23" />
<rect x="935" y="246" width="197" height="16" fill="hsl(204, 30%, 50%)" opacity="0.15" />
<rect x="284" y="104" width="176" height="14" fill="hsl(212, 30%, 50%)" opacity="0.14" />
<rect x="1101" y="115" width="110" height="9" fill="hsl(204, 30%, 50%)" opacity="0.21" />
  </g>
  <g>
<line x1="1029" y1="326" x2="457" y2="395" stroke="hsl(210, 35%, 45%)" stroke-width="1" opacity="0.19" />
<line x1="629" y1="369" x2="464" y2="251" stroke="hsl(210, 35%, 45%)" stroke-width="1" opacity="0.25" />
<line x1="486" y1="143" x2="76" y2="548" stroke="hsl(210, 35%, 45%)" stroke-width="1" opacity="0.25" />
<line x1="235" y1="590" x2="59" y2="294" stroke="hsl(210, 35%, 45%)" stroke-width="1" opacity="0.37" />
  </g>
  <rect x="807" y="118" width="190" height="81" rx="20" fill="hsl(210, 40%, 50%)" opacity="0.15" />
</svg>