<svg xmlns="http://www.w3.org/2000/svg" width="1200" height="630" viewBox="0 0 1200 630"><defs><linearGradient id="bg" x1="0" x2="1" y1="0" y2="1"><stop offset="0%" stop-color="hsl(210, 25%, 8%)"/><stop offset="100%" stop-color="hsl(215, 30%, 14%)"/></linearGradient><radialGradient id="glow" cx=".39" cy=".14" r=".8"><stop offset="0%" stop-color="hsl(210, 40%, 50%)" stop-opacity=".3"/><stop offset="100%" stop-color="hsl(210, 40%, 50%)" stop-opacity="0"/></radialGradient><filter id="blur" width="200%" height="200%" x="-50%" y="-50%"><feGaussianBlur stdDeviation="30"/></filter></defs><rect width="100%" height="100%" fill="url(#bg)"/><rect width="100%" height="100%" fill="url(#glow)"/><g filter="url(#blur)"><circle cx="259" cy="244" r="300" fill="hsl(210, 60%, 45%)" opacity=".21"/><circle cx="7" cy="167" r="223" fill="hsl(215, 60%, 45%)" opacity=".14"/><circle cx="78" cy="499" r="222" fill="hsl(220, 60%, 45%)" opacity=".2"/><circle cx="474" cy="488" r="247" fill="hsl(200, 60%, 45%)" opacity=".28"/></g><g><rect width="200" height="199" x="436" y="241" fill="hsl(206, 30%, 45%)" opacity=".18" rx="2"/><rect width="92" height="7" x="346" y="575" fill="hsl(202, 30%, 50%)" opacity=".23"/><rect width="197" height="16" x="935" y="246" fill="hsl(204, 30%, 50%)" opacity=".15"/><rect width="176" height="14" x="284" y="104" fill="hsl(212, 30%, 50%)" opacity=".14"/><rect width="110" height="9" x="1101" y="115" fill="hsl(204, 30%, 50%)" opacity=".21"/></g><g><line x1="1029" x2="457" y1="326" y2="395" stroke="hsl(210, 35%, 45%)" stroke-width="1" opacity=".19"/><line x1="629" x2="464" y1="369" y2="251" stroke="hsl(210, 35%, 45%)" stroke-width="1" opacity=".25"/><line x1="486" x2="76" y1="143" y2="548" stroke="hsl(210, 35%, 45%)" stroke-width="1" opacity=".25"/><line x1="235" x2="59" y1="590" y2="294" stroke="hsl(210, 35%, 45%)" stroke-width="1" opacity=".37"/></g><rect width="190" height="81" x="807" y="118" fill="hsl(210, 40%, 50%)" opacity=".15" rx="20"/></svg>