<svg xmlns="http://www.w3.org/2000/svg" width="1200" height="630" viewBox="0 0 1200 630"><defs><linearGradient id="bg" x1="0" x2="1" y1="0" y2="1"><stop offset="0%" stop-color="hsl(30, 40%, 10%)"/><stop offset="100%" stop-color="hsl(35, 50%, 16%)"/></linearGradient><radialGradient id="glow" cx=".44" cy=".43" r=".8"><stop offset="0%" stop-color="hsl(40, 80%, 55%)" stop-opacity=".4"/><stop offset="100%" stop-color="hsl(40, 80%, 55%)" stop-opacity="0"/></radialGradient><filter id="blur" width="200%" height="200%" x="-50%" y="-50%"><feGaussianBlur stdDeviation="30"/></filter></defs><rect width="100%" height="100%" fill="url(#bg)"/><rect width="100%" height="100%" fill="url(#glow)"/><g filter="url(#blur)"><circle cx="117" cy="13" r="166" fill="hsl(35, 60%, 45%)" opacity=".22"/><circle cx="109" cy="108" r="202" fill="hsl(40, 60%, 45%)" opacity=".21"/><circle cx="13" cy="201" r="256" fill="hsl(45, 60%, 45%)" opacity=".2"/><circle cx="390" cy="429" r="169" fill="hsl(30, 60%, 45%)" opacity=".23"/></g><g><ellipse cx="786" cy="140" fill="hsl(31, 65%, 50%)" opacity=".22" rx="128" ry="104" transform="rotate(216 786 140)"/><ellipse cx="1033" cy="512" fill="hsl(36, 65%, 50%)" opacity=".24" rx="85" ry="61" transform="rotate(188 1033 512)"/><ellipse cx="567" cy="550" fill="hsl(40, 65%, 50%)" opacity=".22" rx="240" ry="126" transform="rotate(262 567 550)"/><ellipse cx="662" cy="599" fill="hsl(34, 65%, 50%)" opacity=".18" rx="274" ry="62" transform="rotate(245 662 599)"/><ellipse cx="1096" cy="580" fill="hsl(47, 65%, 50%)" opacity=".08" rx="265" ry="89" transform="rotate(283 1096 580)"/><ellipse cx="1174" cy="371" fill="hsl(44, 65%, 50%)" opacity=".16" rx="207" ry="206" transform="rotate(179 1174 371)"/><ellipse cx="710" cy="11" fill="hsl(32, 65%, 50%)" opacity=".17" rx="172" ry="115" transform="rotate(100 710 11)"/></g><g><line x1="312" x2="968" y1="548" y2="317" stroke="hsl(35, 70%, 55%)" stroke-width="2" opacity=".34"/><line x1="286" x2="553" y1="630" y2="374" stroke="hsl(35, 70%, 55%)" stroke-width="2" opacity=".15"/><line x1="308" x2="275" y1="162" y2="521" stroke="hsl(35, 70%, 55%)" stroke-width="2" opacity=".27"/><line x1="91" x2="827" y1="17" y2="554" stroke="hsl(35, 70%, 55%)" stroke-width="2" opacity=".15"/></g><rect width="297" height="46" x="709" y="245" fill="hsl(40, 80%, 55%)" opacity=".15" rx="20"/></svg>