<svg xmlns="http://www.w3.org/2000/svg" width="1200" height="630" viewBox="0 0 1200 630"><defs><linearGradient id="bg" x1="0" x2="1" y1="0" y2="1"><stop offset="0%" stop-color="hsl(30, 40%, 10%)"/><stop offset="100%" stop-color="hsl(35, 50%, 16%)"/></linearGradient><radialGradient id="glow" cx=".15" cy=".5" r=".8"><stop offset="0%" stop-color="hsl(40, 80%, 55%)" stop-opacity=".4"/><stop offset="100%" stop-color="hsl(40, 80%, 55%)" stop-opacity="0"/></radialGradient><filter id="blur" width="200%" height="200%" x="-50%" y="-50%"><feGaussianBlur stdDeviation="30"/></filter></defs><rect width="100%" height="100%" fill="url(#bg)"/><rect width="100%" height="100%" fill="url(#glow)"/><g filter="url(#blur)"><circle cx="905" cy="238" r="203" fill="hsl(35, 60%, 45%)" opacity=".24"/><circle cx="643" cy="365" r="184" fill="hsl(40, 60%, 45%)" opacity=".11"/><circle cx="144" cy="587" r="161" fill="hsl(45, 60%, 45%)" opacity=".27"/><circle cx="407" cy="421" r="234" fill="hsl(30, 60%, 45%)" opacity=".24"/></g><g><ellipse cx="1117" cy="257" fill="hsl(44, 65%, 50%)" opacity=".13" rx="242" ry="102" transform="rotate(352 1117 257)"/><ellipse cx="819" cy="246" fill="hsl(47, 65%, 50%)" opacity=".09" rx="207" ry="87" transform="rotate(66 819 246)"/><ellipse cx="570" cy="239" fill="hsl(33, 65%, 50%)" opacity=".09" rx="234" ry="88" transform="rotate(241 570 239)"/><ellipse cx="876" cy="357" fill="hsl(47, 65%, 50%)" opacity=".16" rx="181" ry="63" transform="rotate(124 876 357)"/><ellipse cx="1100" cy="65" fill="hsl(33, 65%, 50%)" opacity=".08" rx="175" ry="177" transform="rotate(247 1100 65)"/><ellipse cx="774" cy="69" fill="hsl(40, 65%, 50%)" opacity=".12" rx="115" ry="76" transform="rotate(7 774 69)"/></g><g><line x1="1049" x2="1184" y1="615" y2="252" stroke="hsl(35, 70%, 55%)" stroke-width="2" opacity=".35"/><line x1="692" x2="1107" y1="348" y2="586" stroke="hsl(35, 70%, 55%)" stroke-width="2" opacity=".36"/><line x1="1164" x2="428" y1="6" y2="352" stroke="hsl(35, 70%, 55%)" stroke-width="2" opacity=".33"/></g><rect width="243" height="77" x="946" y="132" fill="hsl(40, 80%, 55%)" opacity=".15" rx="20"/></svg>