<svg xmlns="http://www.w3.org/2000/svg" width="1200" height="630" viewBox="0 0 1200 630"><defs><linearGradient id="bg" x1="0" x2="1" y1="0" y2="1"><stop offset="0%" stop-color="hsl(30, 40%, 10%)"/><stop offset="100%" stop-color="hsl(35, 50%, 16%)"/></linearGradient><radialGradient id="glow" cx=".18" cy=".23" r=".8"><stop offset="0%" stop-color="hsl(40, 80%, 55%)" stop-opacity=".4"/><stop offset="100%" stop-color="hsl(40, 80%, 55%)" stop-opacity="0"/></radialGradient><filter id="blur" width="200%" height="200%" x="-50%" y="-50%"><feGaussianBlur stdDeviation="30"/></filter></defs><rect width="100%" height="100%" fill="url(#bg)"/><rect width="100%" height="100%" fill="url(#glow)"/><g filter="url(#blur)"><circle cx="1144" cy="518" r="225" fill="hsl(35, 60%, 45%)" opacity=".15"/><circle cx="754" cy="371" r="206" fill="hsl(40, 60%, 45%)" opacity=".15"/><circle cx="686" cy="410" r="334" fill="hsl(45, 60%, 45%)" opacity=".17"/><circle cx="718" cy="578" r="302" fill="hsl(30, 60%, 45%)" opacity=".15"/></g><g><ellipse cx="558" cy="165" fill="hsl(32, 65%, 50%)" opacity=".23" rx="228" ry="110" transform="rotate(167 558 165)"/><ellipse cx="674" cy="304" fill="hsl(34, 65%, 50%)" opacity=".12" rx="219" ry="162" transform="rotate(291 674 304)"/><ellipse cx="195" cy="627" fill="hsl(37, 65%, 50%)" opacity=".24" rx="163" ry="63" transform="rotate(141 195 627)"/><ellipse cx="296" cy="330" fill="hsl(47, 65%, 50%)" opacity=".09" rx="180" ry="106" transform="rotate(172 296 330)"/><ellipse cx="317" cy="311" fill="hsl(43, 65%, 50%)" opacity=".26" rx="243" ry="203" transform="rotate(32 317 311)"/><ellipse cx="697" cy="63" fill="hsl(45, 65%, 50%)" opacity=".18" rx="171" ry="195" transform="rotate(71 697 63)"/></g><g><line x1="1061" x2="1093" y1="79" y2="493" stroke="hsl(35, 70%, 55%)" stroke-width="2" opacity=".27"/><line x1="997" x2="498" y1="188" y2="341" stroke="hsl(35, 70%, 55%)" stroke-width="2" opacity=".25"/><line x1="1160" x2="213" y1="558" y2="311" stroke="hsl(35, 70%, 55%)" stroke-width="2" opacity=".24"/><line x1="192" x2="501" y1="401" y2="627" stroke="hsl(35, 70%, 55%)" stroke-width="2" opacity=".32"/></g><rect width="308" height="98" x="847" y="129" fill="hsl(40, 80%, 55%)" opacity=".15" rx="20"/></svg>