<svg xmlns="http://www.w3.org/2000/svg" width="1200" height="630" viewBox="0 0 1200 630"><defs><linearGradient id="bg" x1="0" x2="1" y1="0" y2="1"><stop offset="0%" stop-color="hsl(30, 40%, 10%)"/><stop offset="100%" stop-color="hsl(35, 50%, 16%)"/></linearGradient><radialGradient id="glow" cx=".21" cy=".19" r=".8"><stop offset="0%" stop-color="hsl(40, 80%, 55%)" stop-opacity=".4"/><stop offset="100%" stop-color="hsl(40, 80%, 55%)" stop-opacity="0"/></radialGradient><filter id="blur" width="200%" height="200%" x="-50%" y="-50%"><feGaussianBlur stdDeviation="30"/></filter></defs><rect width="100%" height="100%" fill="url(#bg)"/><rect width="100%" height="100%" fill="url(#glow)"/><g filter="url(#blur)"><circle cx="806" cy="346" r="230" fill="hsl(35, 60%, 45%)" opacity=".27"/><circle cx="1046" cy="624" r="303" fill="hsl(40, 60%, 45%)" opacity=".22"/><circle cx="763" cy="332" r="197" fill="hsl(45, 60%, 45%)" opacity=".23"/><circle cx="545" cy="363" r="322" fill="hsl(30, 60%, 45%)" opacity=".28"/></g><g><ellipse cx="204" cy="629" fill="hsl(48, 65%, 50%)" opacity=".14" rx="207" ry="202" transform="rotate(75 204 629)"/><ellipse cx="911" cy="473" fill="hsl(38, 65%, 50%)" opacity=".21" rx="177" ry="177" transform="rotate(9 911 473)"/><ellipse cx="543" cy="322" fill="hsl(38, 65%, 50%)" opacity=".09" rx="206" ry="141" transform="rotate(258 543 322)"/><ellipse cx="498" cy="286" fill="hsl(41, 65%, 50%)" opacity=".1" rx="202" ry="188" transform="rotate(314 498 286)"/><ellipse cx="803" cy="102" fill="hsl(40, 65%, 50%)" opacity=".23" rx="141" ry="76" transform="rotate(78 803 102)"/><ellipse cx="677" cy="493" fill="hsl(42, 65%, 50%)" opacity=".24" rx="201" ry="130" transform="rotate(23 677 493)"/></g><g><line x1="622" x2="472" y1="104" y2="580" stroke="hsl(35, 70%, 55%)" stroke-width="2" opacity=".2"/><line x1="481" x2="775" y1="488" y2="196" stroke="hsl(35, 70%, 55%)" stroke-width="2" opacity=".24"/><line x1="235" x2="1118" y1="104" y2="236" stroke="hsl(35, 70%, 55%)" stroke-width="2" opacity=".25"/><line x1="1172" x2="530" y1="480" y2="146" stroke="hsl(35, 70%, 55%)" stroke-width="2" opacity=".29"/></g><rect width="204" height="91" x="964" y="208" fill="hsl(40, 80%, 55%)" opacity=".15" rx="20"/></svg>