<svg width="1200" height="630" viewBox="0 0 1200 630" xmlns="http://www.w3.org/2000/svg">
  <defs>
    <linearGradient id="bg" x1="0" y1="0" x2="1" y2="1">
      <stop offset="0%" stop-color="hsl(30, 40%, 10%)" />
      <stop offset="100%" stop-color="hsl(35, 50%, 16%)" />
    </linearGradient>
    <radialGradient id="glow" cx="0.15" cy="0.50" r="0.8">
      <stop offset="0%" stop-color="hsl(40, 80%, 55%)" stop-opacity="0.4" />
      <stop offset="100%" stop-color="hsl(40, 80%, 55%)" stop-opacity="0" />
    </radialGradient>
    <filter id="blur" x="-50%" y="-50%" width="200%" height="200%">
      <feGaussianBlur stdDeviation="30" />
    </filter>
  </defs>
  <rect width="100%" height="100%" fill="url(#bg)" />
  <rect width="100%" height="100%" fill="url(#glow)" />
  <g filter="url(#blur)">
<circle cx="905" cy="238" r="203" fill="hsl(35, 60%, 45%)" opacity="0.24" />
<circle cx="643" cy="365" r="184" fill="hsl(40, 60%, 45%)" opacity="0.11" />
<circle cx="144" cy="587" r="161" fill="hsl(45, 60%, 45%)" opacity="0.27" />
<circle cx="407" cy="421" r="234" fill="hsl(30, 60%, 45%)" opacity="0.24" />
  </g>
  <g>
<ellipse cx="1117" cy="257" rx="242" ry="102" transform="rotate(352 1117 257)" fill="hsl(44, 65%, 50%)" opacity="0.13" />
<ellipse cx="819" cy="246" rx="207" ry="87" transform="rotate(66 819 246)" fill="hsl(47, 65%, 50%)" opacity="0.09" />
<ellipse cx="570" cy="239" rx="234" ry="88" transform="rotate(241 570 239)" fill="hsl(33, 65%, 50%)" opacity="0.09" />
<ellipse cx="876" cy="357" rx="181" ry="63" transform="rotate(124 876 357)" fill="hsl(47, 65%, 50%)" opacity="0.16" />
<ellipse cx="1100" cy="65" rx="175" ry="177" transform="rotate(247 1100 65)" fill="hsl(33, 65%, 50%)" opacity="0.08" />
<ellipse cx="774" cy="69" rx="115" ry="76" transform="rotate(7 774 69)" fill="hsl(40, 65%, 50%)" opacity="0.12" />
  </g>
  <g>
<line x1="1049" y1="615" x2="1184" y2="252" stroke="hsl(35, 70%, 55%)" stroke-width="2" opacity="0.35" />
<line x1="692" y1="348" x2="1107" y2="586" stroke="hsl(35, 70%, 55%)" stroke-width="2" opacity="0.36" />
<line x1="1164" y1="6" x2="428" y2="352" stroke="hsl(35, 70%, 55%)" stroke-width="2" opacity="0.33" />
  </g>
  <rect x="946" y="132" width="243" height="77" rx="20" fill="hsl(40, 80%, 55%)" opacity="0.15" />
</svg>